<svg version="1.1" xmlns="http://www.w3.org/2000/svg" viewBox="0 0 580 439">
  <defs>
    <style>
      @font-face {
        font-family: "Virgil";
        src: url("https://excalidraw.com/FG_Virgil.ttf");
      }
      @font-face {
        font-family: "Cascadia";
        src: url("https://excalidraw.com/Cascadia.ttf");
      }
    </style>
  </defs>
  <g transform="translate(10 10)"><path d="M-0.7396225579082967 0.07950720861554146 C156.14602586403493 1.6830810867249968, 313.3233117066324 0.9119636617600919, 559.8069736592472 -0.7744944803416729 M-0.25200289450585844 0.3682793077081442 C165.99622227735819 1.509693530127406, 333.1366963658482 1.918405356928706, 559.6937680963426 0.27977855764329435 M559.8182398650603 -0.6487536769377098 C558.463042205619 166.27902264324715, 559.2149823682728 332.73973544738124, 560.2744007808047 419.3668422279011 M559.8079558230847 0.4289201259106211 C558.0859485305323 87.49137498661672, 557.8256515588226 175.13387255665432, 559.610054829611 418.5244129570968 M559.9214100711048 418.9855422981083 C437.87786460593344 421.86602879330513, 316.0671186707914 421.6277162389457, 0.15062194988131525 419.2721427209675 M559.7594184283167 418.68695327602325 C350.0317192602903 421.12701233260333, 139.61982857920225 420.75370893113313, 0.07107152976095676 419.293813091144 M-0.6692202912382975 419.3139040361403 C2.3543690546548035 266.15778774230085, 2.4621589006002096 115.41026273680517, -1.0317385349938766 0.31005731058665664 M-0.446942937321084 418.9412565739546 C-2.2242247866731817 331.4078552437333, -1.381725617045253 244.75471741361503, -0.3173100270945243 -0.3328042797850795" style="stroke: rgb(0, 0, 0); stroke-width: 1; fill: none;"></path></g></svg>