<svg version="1.1" xmlns="http://www.w3.org/2000/svg" viewBox="0 0 638 505">
  <defs>
    <style>
      @font-face {
        font-family: "Virgil";
        src: url("https://excalidraw.com/FG_Virgil.ttf");
      }
      @font-face {
        font-family: "Cascadia";
        src: url("https://excalidraw.com/Cascadia.ttf");
      }
    </style>
  </defs>
  <g stroke-opacity="0.8" fill-opacity="0.8" transform="translate(10 10)"><path d="M0 0 C0 0, 0 0, 0 0 M0 0 C0 0, 0 0, 0 0 M-0.5154694996448109 5.751920932580822 C0.3641044675803603 5.280821489156832, 2.1848024490346205 3.7294349458458287, 5.218388960840649 0.9928831782040409 M-0.1258213430316994 6.458088804085843 C1.6125487301477412 4.307284247539676, 3.7703471325618314 1.353598246313073, 5.020664027663416 0.6126337800023371 M1.2153604128490794 11.642667231380521 C4.745308620273708 6.564037896150027, 8.066861871193641 4.781178203134337, 10.622637270343436 -1.3777123545214771 M-0.41637752418409724 12.42070870292145 C2.9159655855389115 8.410365733839841, 6.216691027833558 4.5342397947523105, 11.247267350506913 -0.2591127832338451 M1.7163281077006598 17.034403699357682 C5.974602095574806 13.079540756730715, 10.597808594836879 4.540673913520161, 14.348206895872433 1.333035994966047 M-0.1825675005605678 17.44449732163983 C5.10031243753198 12.541439864310897, 11.77772038766551 5.591240106004143, 16.553964348047455 -0.5489900645869801 M-0.3141491522826936 25.666627349048017 C7.70456394334637 16.821996984863688, 13.747748683097921 8.22607064022015, 21.43181389784243 0.8858845470636609 M-0.5625347474404361 23.845563489659785 C7.771233663610129 15.825658509467424, 14.162948249036758 7.809046295769534, 21.909371570030117 -0.9277212811470505 M0.7355625751008645 31.481558168072453 C6.855590187663484 22.664953989354334, 17.378699236322305 9.782117455768201, 26.880644066866846 1.506327963807875 M0.17250564233859933 30.160356800768724 C7.859663119347001 22.332532780999102, 13.698962474773976 13.285951595410651, 27.03121465132794 -0.30098951477438796 M-1.8760606889706573 36.99511645902072 C10.647930860306865 26.002122436237208, 20.758386025992287 10.73787115532021, 31.15220120311419 0.6001082175656443 M0.16353701417329702 36.41584492083763 C7.786269702435291 26.36794707622106, 16.57645883282868 18.6731819870446, 30.97630159132818 -0.25005230482078744 M0.933675826680755 43.58650377448254 C7.540747769200947 32.56923279406796, 16.052213276603474 26.202774661591548, 36.77897174079095 -1.4199131484049836 M-0.07931666153957906 43.42610489073746 C10.297777172945212 29.6179036063687, 21.578729316840228 17.02439139393491, 37.108844898456084 -0.1127194947469512 M-2.0214914437384195 49.88733165771596 C10.30691655651466 35.836049946338726, 20.765123885226377 25.077209344190127, 43.49189698006563 0.9535683382629401 M0.4175321236252003 47.99395186700754 C8.602611874758667 39.84180928252572, 17.372347809061143 28.06243985271257, 42.4114338220989 -0.08352987390468058 M0.27062879994033295 54.62365458108793 C17.87216600878722 36.14151113882316, 31.03676825245167 19.226662080627925, 48.84690085514474 0.4849767208274649 M-0.2539523809451012 54.565472060296045 C13.52020027326792 38.48982971897648, 29.086913119813165 22.542366429951123, 48.29906212068188 -0.23857453575467602 M1.6472104919235022 62.778646587856514 C13.116165103718922 44.82832309476686, 27.01477032143775 30.304053256112553, 51.348362166196765 -0.7168210283444516 M-0.0694014168252437 60.20519937714229 C15.231449847956977 42.59485557354313, 31.598421649162137 24.996175217373896, 53.930100293592275 0.36432648035127 M1.2378234033890934 68.43463423061142 C17.211999492548678 47.30085284184594, 33.760775883918214 29.64480904755012, 59.075642347428214 -1.035838365994767 M-0.41712851361847214 68.25064835841725 C22.323216566808657 40.0025213089954, 45.69484380546428 15.056955865148723, 59.020323349255335 0.66080083095245 M-0.6287439444848886 73.16222531194238 C22.846509184468996 48.32007240627631, 43.47364112408963 25.625841718370957, 64.80655769900758 -1.2616458197565308 M-0.0038065759280314637 73.51394291999189 C24.302779852277155 45.070367522972134, 49.96157098701158 16.197132935519797, 63.15388303705831 0.4797472266970644 M1.4823386325080463 80.40943762510744 C24.834784487042597 50.59496624029555, 46.62166085032939 25.451058772512184, 70.64390715514138 1.573305653628303 M-0.7601449703286818 79.48344509340552 C23.313702229493504 52.67674544237852, 46.416652454921376 24.416853630874343, 68.59733561542645 -0.48148792587559086 M0.5793561845364081 86.34373189247356 C23.0903655787146 58.58262835729822, 44.52455010556226 34.901737840531176, 75.13894451599809 0.2810080265267061 M0.814023677566837 85.97828796430633 C22.987691886570932 59.63895785255221, 46.16871174142398 33.140764357207324, 73.610614083747 0.24271283388270604 M1.8705763958066868 90.01468840729878 C20.848517750853045 67.37725623132133, 42.62199811007235 41.91790728388839, 77.91790621578423 -0.3194271578033039 M0.46377125118376483 92.12355231423363 C31.462470348127244 55.36009746325048, 63.15429390937367 18.134972061420612, 79.26105595044521 0.8614146625112227 M1.2316627874968873 96.19603997217283 C26.829240032119863 65.78508965826117, 56.541023871481585 33.58774214862892, 86.80548355466829 -1.3144454269947516 M-1.1660126540811433 98.0047995590584 C22.12329775500253 71.33004471121545, 43.942879148775596 46.10011177606477, 84.73437546490834 0.22695377065818434 M1.1124976307850147 101.77480063968542 C28.037993914556967 74.02107362173143, 57.399324164389505 40.27339786551154, 90.45135046685675 0.46662726221039463 M-0.4362978178311323 103.86970048965159 C21.920845141400704 79.15794586219468, 41.959876455616005 55.881287042371554, 90.14869138556162 0.8101140648628729 M-1.555995140122441 110.14039445309461 C18.857492108712133 85.47128329019367, 39.76236898288407 65.26548791439662, 97.45363575251818 -1.4610921178208969 M-0.6195904816409623 109.32966401255251 C36.07957943799458 68.15035636566, 71.09352287653196 27.23764255906731, 95.86549921179235 -0.4000494942264936 M-0.8944367250569698 114.02668838476738 C22.811739003038443 91.26722383843105, 41.76476740263441 66.64559097692178, 100.98545084585899 -1.0753670238305872 M0.7549798538766268 115.0143700884094 C20.778873829155337 91.35788522242335, 42.06752195310471 67.25860118198577, 101.30369895202571 -0.9210342500706261 M-1.4484656898120818 121.67466897796174 C34.137254384390836 84.67813099182763, 64.46672706357593 49.03813532047482, 105.91836204704774 -1.7595179834517225 M0.7156881971468749 121.5469463737615 C39.21294412330531 77.84575585330732, 78.30080203989658 31.602810886812463, 106.250567355649 0.1229335079786793 M0.2786752367902281 127.67447528526742 C22.753637032122622 99.8960309301921, 45.533498742023895 74.78293167819471, 109.4489182902909 1.8602540465737363 M-0.4968727314334629 129.1985011594798 C34.8006863892531 86.0007132348732, 71.57768007926703 43.86024091891824, 111.67578568108745 0.9760751864607116 M-0.267037924072028 135.35452760927416 C37.82575722669168 91.06474300552435, 80.88730568519041 43.32778890735517, 115.5660643467665 -1.2430993811644626 M0.6645304135323755 133.0897521114353 C33.87381334163586 95.26388981063862, 68.45686743035955 56.735416491779404, 116.38635289873781 0.905592826246469 M0.21641251180761856 139.17065624324002 C28.4730412962133 106.60662872796561, 59.48858001546908 70.62922654337493, 122.9579637376525 -0.1083454640766206 M-0.8519054845303913 140.3926550111673 C34.00517953923209 102.48771916627402, 67.2586544136653 63.480294949778, 121.12090860399684 -0.5967021567930999 M-0.6455009054023009 147.5481344095319 C37.70966374196236 102.06266624920897, 74.59383318658797 61.41042046098593, 124.91882164715543 0.6031585910953297 M-0.04210680123448185 145.98493669432398 C49.21562814766946 89.74393533039657, 97.79570599511115 34.58847856621185, 126.64405593028977 -0.6127602311186777 M1.5471199712983918 152.97749671554436 C41.632796213233505 106.49916983143953, 82.67895463448711 59.86440271227868, 131.89193620723424 -0.49916578638738374 M0.8703605341991788 151.52576129942625 C48.44575714515286 97.83681764082036, 96.75296917161639 43.450078452480085, 132.41644988366372 0.7621747415963359 M1.1327950305194916 159.14470186479159 C39.844822373041325 113.95552938526288, 82.65020465827375 66.46536774494614, 135.93007738454082 0.36334081911424226 M-0.40139506394020963 158.6296922005487 C32.11814515499222 122.91126323974616, 62.34773939217667 87.30892847972642, 137.3565402532282 -0.0834487741589317 M1.2775031987581116 163.08479361752197 C46.672526046242524 111.07496186446987, 92.17652895413327 56.190272946906894, 141.7313762515534 -1.0755035584488186 M0.718946527916697 164.89550583160354 C55.84447371424792 101.36346622051863, 111.01637710808447 37.835575875781956, 143.1844104433431 -0.5123668782313431 M-1.15923835085105 172.48972352122934 C40.44032380505415 125.30547603241382, 81.60179488894447 79.07099236743002, 147.6370555067973 -0.2099088407233624 M-0.548444068554143 170.68810027523472 C51.493971451953925 111.57789200675978, 103.08000562795925 52.25491701309618, 147.44512387236418 0.4461206372183898 M1.072767973913768 176.14631934939155 C44.39436711398617 124.7445061658111, 88.66601211644807 75.36725116450607, 152.90164196788493 -0.0785524233721919 M0.3825246077227914 176.30241794475768 C60.959406512897395 105.8571287743092, 121.595518633835 37.00493490760794, 154.0102793480466 0.6473429607010485 M1.3978807899372356 184.50232310575245 C55.60471758585744 119.16382488290576, 108.83226025749539 55.21975405710319, 157.45728837709152 1.7674000282079394 M0.13139070654842966 183.57191504469154 C42.56340924767227 132.60713499791956, 86.54965733027356 83.27294695339151, 159.29459551687097 -0.0028796780690367174 M-0.524914468572218 190.3685714834542 C46.925956562365585 135.14572991622853, 94.1357263626706 79.91114349927382, 165.17043281562903 0.6031691301812622 M0.5722098251030421 189.8268266819415 C48.02986511317679 132.20299451351727, 97.69176961591063 75.54344608457069, 164.46386322341135 0.1597031917335916 M0.4113730393101164 194.9963223772476 C36.43374205095247 150.72953576888239, 73.41742839158755 109.43952478479638, 170.35411398497422 0.6499642316698813 M0.23945262987335333 194.31110645525706 C42.73299089007214 145.7758210013091, 84.76192632661858 98.01781353844095, 170.07481792869189 -0.27608137212080647 M1.1919050577117305 200.27443932911095 C52.37480162663269 138.49264783911826, 105.76782424571668 77.85738202694283, 174.52515049850322 -0.8319867510666169 M0.5622421959381606 201.0281458571192 C45.66135752337983 150.08410743591043, 89.63035358398521 99.14347926738579, 174.88683630052356 0.4469961721740521 M0.3378944336933588 206.7871804446015 C71.20675545248021 124.10083160262099, 140.08637552903895 44.074974515050464, 179.15124656999618 -0.8693764745758186 M0.8095469449264733 206.21701737826916 C54.23618403831485 145.1217265510964, 108.14897672744954 83.00140462242122, 180.34309412477032 -0.45246237203652895 M0.2742414053427108 213.70176001802028 C39.50718852809772 170.08372495633128, 75.95778838249521 125.24406745804528, 186.00597015028308 0.009737611816959424 M-0.6287253343055315 213.13301925771646 C56.93363053227802 148.8311201352078, 112.73460051030746 83.65907547412837, 186.2682091066839 0.26245003618841206 M0.8007846985775251 219.93822364260362 C70.14192880490093 139.71300954159528, 139.10877174147063 62.540721077409806, 190.50711609487212 0.9304521078967123 M-0.2354039187369581 219.62523565518387 C41.639747118065564 173.31595360792355, 80.65622902349831 127.23229763412435, 190.52380469696698 -0.15626177210514097 M-1.1125057771440923 226.36306719070956 C72.00503230014809 144.86205827031011, 140.35626624477646 64.66092725112564, 197.50865046012876 0.918711468734349 M-0.39782238755183386 225.785014198626 C61.03280273543869 154.82133330726276, 122.89666719083102 84.51880507357724, 195.7157050746561 -0.30402588101823635 M-0.13243728858000778 232.19448415519312 C78.6686463621449 141.8142239825202, 158.60112370380347 50.20754394181479, 202.36639428437323 -1.0041971866430979 M-0.7055073752997725 232.35474570542794 C63.27870368539758 156.62458488482085, 127.99638787871122 82.77480346069318, 200.92002112453767 -0.08554280812662504 M-0.23759131621353746 238.658616562706 C82.03210808409128 143.5690433655903, 163.88496387827803 47.97461318395957, 206.62775564220033 -0.16008185541210376 M0.5985868517754109 237.6704675572402 C50.747395572348125 177.82667196918152, 101.08361552019562 120.46825848072989, 207.05067027470378 -0.03988028174081498 M-0.9062961986775899 243.53719102797845 C79.16571824958922 150.39937639918642, 160.2345165579877 57.85854167243085, 210.99316620005536 -0.34739479667059336 M0.13185847006156048 244.29858493551055 C67.65336576521648 166.4819183905868, 137.01863539943582 86.71314511083798, 211.72556877087823 -0.4259258053740144 M-0.0726830929667584 250.20312308307751 C59.05873521097048 180.23674120816196, 121.90603144576718 108.87075989184629, 218.94116077833957 0.349278018916778 M-0.3018382072425201 250.1873170777848 C64.68682654466971 177.65551011958343, 127.54243847120738 103.4407562769865, 217.35184170857943 -0.9107519722272508 M-0.15790452068009353 255.8610854389871 C81.9361580486812 159.80062761549908, 163.09880388475634 66.66694893458497, 222.0269507935787 -1.1661291347834157 M0.05106316417318453 255.78905379157428 C63.05093827407211 181.4082633208404, 126.778863319773 108.05539502240472, 223.0392668375023 0.4011487026077831 M-0.5166554851742686 262.33771102752206 C54.89161681307629 200.04236557415106, 108.4769680779068 137.99581772172706, 228.19617588850784 0.13966544941138115 M0.37349518457309944 262.76866320273473 C75.42044616282212 176.42761124239786, 148.9511319577143 90.91583288749054, 228.64322761427255 -0.9290585629694846 M0.16874898144768025 268.0881644412463 C50.98248197042138 208.96169251772898, 103.31564280491364 151.53164302464162, 233.32728754160337 -0.6273815385792078 M0.306482191361314 268.1415001822617 C52.128474322219525 207.80090785691434, 104.23906010877967 148.23447244832545, 233.59357206342358 0.26093124477386015 M0.01372590844332829 274.34523853503515 C93.54169604174922 170.7439755975986, 186.1658568195361 62.97216863465255, 237.96703160938193 0.39658224001169834 M-0.023385185530363478 274.82615253096014 C64.11186749765444 201.49923657208004, 125.88912073768532 129.38598900420476, 238.78893630344606 0.8355718097694296 M-0.2717858475728536 279.9426677661518 C89.63835242804599 178.62272463073242, 179.63622493107354 74.80768474253347, 243.79504417668224 -0.14549314805709324 M-0.596362200961666 280.50736453478885 C75.34480366205398 192.35562700420834, 150.62634707667297 105.33720820002199, 243.49450068083453 0.17518518741049788 M-0.6885088216051631 286.0670989595341 C85.54896554517106 188.5122953366628, 173.27951378749657 90.80223441792857, 247.84888052195888 -0.13173345936668818 M0.381431929852747 286.7812997843193 C70.70337819340484 204.7202277655017, 141.54241679086516 122.19653144787733, 248.38969888443245 0.35525590203391155 M-0.3802401599631784 293.65048176664345 C67.20379490391697 219.26934123131394, 132.62043907187078 143.9522445422704, 255.56352541827903 0.1470828689044898 M-0.33875818363717997 293.3213025989149 C73.71910117394197 209.61684272643325, 147.11667595898527 125.46933537785296, 253.96422664365272 0.1821240819626061 M0.8182464344395417 298.41822928597696 C57.028769635760256 232.62520432440735, 113.42505097605037 168.2465396096331, 259.87854985256257 -0.5765129902972128 M0.803424578190321 298.1877182798461 C63.26693715905295 227.1483816490252, 126.4583665396897 154.69930507762476, 259.0391948113127 0.6517468368078396 M0.8008420557013347 303.9830159008479 C81.17347756228578 210.89012172749355, 161.3018030939188 117.13152888235888, 264.33988903529394 -1.0794341074719114 M-0.47413918397776555 304.2362769509942 C65.35679525580186 227.70127307174724, 131.09331303360742 152.7030464486221, 264.8433443893429 -0.47715880872543054 M0.7802191628852764 311.7045766651312 C105.0770672679977 188.3527528331283, 212.63287434822638 65.92623276024942, 269.24095684782844 1.2430383825879154 M-0.12380198100322912 310.8610568230799 C61.493662511375234 240.7658018538688, 123.54833701045081 169.3794610072988, 269.8061278705148 0.09536567673614238 M-0.11397681493483958 316.59713161593294 C91.6479256410196 211.71348652220456, 182.93788482186045 104.92802986949873, 275.78165729149646 0.33376314185658645 M-0.1913258518369953 316.8943273119738 C67.54332472344315 238.404131391936, 137.1521598126174 159.15993956948373, 275.94049320398915 0.03101107535606812 M0.6716886718405 322.90496763521963 C101.50648829156889 204.83263400768283, 202.4377462174563 87.1272083734573, 279.91626660066333 0.7350419737850332 M0.3757459346206932 323.4234528979275 C59.49299412637896 257.74355105200937, 117.50082333929146 191.5316469157685, 280.384961262858 0.26927037226862777 M-0.2014551862271421 327.9095999590667 C97.91532073559858 217.70870907724031, 195.11529625157775 104.9843702016808, 286.99305725065614 0.5686298359330665 M0.6154431629316435 328.98933940280125 C89.4165216259941 227.2230536354241, 178.47979353459306 124.33418385206873, 286.0306327736753 -0.5596585057830183 M0.5671647479618044 334.4325590819408 C88.56857124246365 232.62792063478474, 178.58638098356292 130.77633052432978, 290.7909060633401 0.017317344251560257 M-0.18082302955433024 335.0433610005965 C114.95032658198147 204.32931451366287, 230.25292913606793 71.32452641169799, 290.9794904157831 0.2794349200853539 M-0.05709061398024276 341.4494250642386 C96.8497639104267 230.0591414014624, 194.07252605530263 117.46921373114581, 296.1820286358367 -0.6774796162337611 M-0.12387777541232123 342.0869667763783 C61.15579407487444 271.2255052176311, 121.42697211280627 202.81719270347318, 296.9737994950134 0.05028770360977247 M-0.24937917310616514 346.6091958024626 C86.55078014502621 249.3352776698111, 171.51168522965156 151.49900963358544, 302.4407957496284 0.731723863030465 M0.44058775161829816 347.5327631770341 C81.86521818666031 252.1641500075908, 165.08686572226824 156.65394662123214, 302.17720069037426 0.14702660519608643 M-0.5248712253460067 354.19279401992975 C85.44326031125372 253.30017880543372, 171.42503704762206 153.37996536434707, 307.92597767258343 -0.972317518520282 M0.00896101565911285 353.33580197806185 C78.21162435394851 262.0272959273172, 157.95475780268487 170.99247643668662, 307.48853618766526 -0.572997601690538 M-0.04751145571893478 358.71174919395304 C78.91419295045175 268.51096884652765, 158.55907600226038 177.01347009778897, 313.18558477329765 0.5521682991647167 M0.4403266032850062 359.06412817318756 C120.84685247106438 222.6193351519157, 240.45695122230316 84.23292845115321, 312.1900011477153 -0.28504298738940914 M0.8171864634316333 365.6130819992568 C119.12816876233126 226.71747614912152, 240.64508369286088 89.25951392438388, 317.797520030079 -1.0372271505889077 M-0.08372468482068995 365.6812847113602 C118.25165666030139 229.65799386138272, 236.38155676846023 93.5305832635979, 318.2286344854944 -0.6771417931984294 M-0.9543034750963714 371.6735272021712 C86.95502764217792 272.745557708902, 173.8015115787965 173.07675834354592, 323.03731113851984 0.8853916373381695 M0.19234234366065284 372.5234892224964 C102.78321499714754 253.73610875757052, 205.69708839166722 134.69380757103397, 323.31885810164954 0.3540168700426988 M-0.37199991422777434 377.85826459585326 C126.78323781041735 230.92499417994176, 255.20121343497408 85.11285796853834, 329.2224324337926 -0.7269525926274412 M0.4179154380869363 377.4622361792495 C131.04849603919152 226.636277127615, 261.2854825857094 76.75698368993365, 328.86658465115096 -0.25526848767820526 M-0.8229083850940242 384.83560569796646 C89.10261273709817 284.4830028657558, 176.41223508590554 182.92921712772224, 333.2508601474871 -0.353430405245706 M0.2330375410655961 384.4014073489972 C113.63885117662808 251.7940206546785, 227.68476825514472 121.10112528252029, 333.80723968551655 -0.15675018651930941 M-0.2609051048017932 389.4959889898763 C91.60609880600192 283.3223605335788, 182.39061031743125 179.03382290251227, 339.27027578421513 -0.781973449942234 M0.22170295648203364 389.4697152214811 C118.53745611996949 255.97028286121443, 235.82834543146922 120.45429387000499, 339.8874780713824 -0.6103695966867235 M-0.655578834457134 395.7805230851535 C91.42179946047473 292.4315679548185, 183.04403006987206 186.6451021030064, 344.57827808287055 -0.4636606131464646 M-0.047517897082303764 396.29003110558426 C126.07613112510748 250.7557166712913, 250.7417933598997 107.15176959780493, 344.85477647733006 -0.00966165929738736 M0.5713462518055223 403.0615003567002 C128.9900703495606 252.41586549420606, 258.67607145669456 102.35534148895479, 349.770330369319 -0.3683870219561073 M0.18477873592565291 402.2609413195214 C135.12474341429032 245.71122832886076, 270.80695550486246 89.143659856966, 349.4724449089125 0.40255369386349005 M-0.2721665201483404 408.45652567741865 C142.1586925402181 245.18425024957554, 284.94418269358664 83.56045600505891, 355.9215834694259 -0.07073530346904136 M0.1256528610588873 408.3958759315073 C130.32891747935895 259.99472235497774, 258.53404385591773 112.37052533085908, 354.7764496216827 -0.026699718989470968 M0.03335658857522504 413.9426451608794 C83.76487832981478 317.7369089162213, 169.1832252173702 219.96383623489575, 360.16869862208523 -0.23584684411467838 M0.2866436468988468 414.76223750042493 C92.09021035223007 308.6054916561833, 184.36558853623765 201.9385581437144, 360.13223603422205 0.4785744110268183 M0.30525390384178763 420.2780886799847 C98.60674835088248 307.4312058782668, 197.4904841106339 193.2361755390046, 365.85226068215314 0.14761114878647846 M0.0451235989986003 421.128143594489 C135.66563752575337 263.01250968135355, 273.4834796357303 105.12425576596833, 365.45214193107427 -0.38462217809564553 M0.14055125151680273 426.11639860763677 C144.74115208006387 260.5705274686405, 291.7144053755151 92.69102687447669, 370.0183058885234 0.2551222888049324 M-0.29887852708889684 426.4015555319143 C91.17098718469497 322.79963635637944, 180.7485370459308 219.83127723552263, 370.7719252308207 0.614394322526141 M0.29778487049430286 433.52055855740616 C145.07449486351416 264.00364014825885, 291.4703296651611 95.1633426238649, 375.81679409605226 -0.5613556313798768 M0.13414518721788798 432.8694071215839 C110.89818138745098 304.9724160912181, 222.59038308292128 176.65081906458784, 376.724236218005 0.17731315088411748 M0.03941461563028381 439.5300263219723 C139.9105859080247 280.23630650369586, 278.400899009004 120.35664022375462, 381.60313654363347 0.11428600180261128 M0.2205950264624505 438.88963760148965 C150.03985999910935 265.9492218312162, 298.6008932324902 94.41748732361441, 381.7151453112085 0.4895056158613443 M0.6333517258187215 445.44841051490573 C129.06874675307157 293.55762701428984, 260.39049493807016 143.17025371590927, 386.9366680861232 0.1746299810318931 M-0.3897085907737335 445.3038682805148 C107.57540311111939 321.0035435954857, 215.089809912716 197.3157329676918, 387.19761529497475 -0.4426515445501821 M-0.5046279730748722 451.61050350910875 C100.77106632377426 336.1644083245962, 201.88867988045044 218.89332697907793, 391.28217496241535 0.6764099198784721 M-0.6561119089376519 451.32943547687387 C121.30823255601014 308.9318961605346, 244.01460403820698 167.61321136120523, 391.6480290878853 0.0209004785325419 M0.1709388448149582 456.4964101774834 C80.13133311934061 365.70352346204515, 161.45241238779207 272.0654483865862, 398.408367027366 -0.14716638897821213 M-0.09030492247634925 457.1985192587815 C135.71743415856847 302.4589619740536, 269.4179207289444 148.84748024098297, 397.43966197448356 -0.508774076898544 M-0.08297408161769794 463.8456766336005 C153.45342878189862 283.9263475530387, 308.00099736381884 106.4592940139717, 402.2894055198691 0.8012596680324293 M0.10050153719176363 463.5972721851211 C151.14017869601852 287.04500345112353, 303.833571354543 111.18874234992872, 402.4192093733511 0.16307109803964864 M-0.15546939751687322 469.42432317013925 C145.05373028617709 303.0774976416955, 290.36489385604585 134.8719184388206, 407.50337529478065 -0.9044791164101924 M0.030989004610154303 469.1578522438843 C140.87178361138933 308.8819198390909, 281.52559202910567 146.92021366229005, 408.3802590690314 -0.04781225866096861 M0.4198016360114082 475.11252090067035 C96.62654219997482 365.88997723350695, 191.5780797652297 256.61660265051455, 413.5338125909947 0.07360087126451162 M-0.08574085163970153 475.27109949395424 C129.96281542421102 326.0751463177733, 260.3143586916394 176.01310149168637, 413.439818980106 0.5080096618826928 M0.4070523448326583 482.07162469809595 C110.8893900162691 353.37225807782085, 222.3047346114499 225.31667960450827, 419.1681772633672 0.049957423735980944 M-0.12075302600479176 481.97856900354566 C96.41685689202345 367.88295129630325, 194.46713949388163 256.2446997274566, 418.91178939111836 -0.049023902337427205 M1.7623016127933853 486.7488827748728 C121.59341610936792 347.6427305860978, 242.0542318356608 209.14635686663638, 424.3993805507922 0.40319915457471894 M1.7396617950488917 485.9022404304278 C90.44712845822463 386.6237921201323, 177.10471399490694 285.91905668756095, 424.08349072064993 0.08520835756167458 M6.815196794749613 486.3915654236803 C123.3453012915973 350.4534846987251, 242.77507315327205 214.70437022460317, 430.02425730812575 -0.011591143539777693 M6.2508101460648735 486.88364676259255 C171.459975671038 296.5878816529641, 337.9499586224645 104.15372282453926, 429.8891357532444 -0.06416682042800514 M12.538718571614321 486.0705129185346 C104.08487794292763 380.11939557315793, 197.01218967761707 275.42072404036526, 434.7450937742616 -0.37517985703692036 M12.254300637643633 485.7324222193685 C139.79151766762124 339.95636898655306, 267.16802569161194 193.23094479706504, 434.48635740748296 -0.2383406274233778 M16.547653182281486 486.2924588730061 C121.29924735799487 365.5044224132491, 224.23104226557672 245.564491365754, 439.568099804056 -0.6918591932373546 M17.151516188366646 486.56362560963873 C136.5130945135006 349.90424978002795, 255.31767395587676 213.57962828190043, 440.1296809679094 -0.6074988254325888 M22.360710481607136 486.3406110797745 C148.79077596244278 341.4228256327386, 274.2545806721727 195.4576644151056, 444.9049366364029 -0.5017705385704915 M23.040732082777435 486.06332117139516 C108.08781683513921 384.46193709392765, 196.17841332497972 283.66505393775753, 445.54705185310513 -0.1581451055725495 M26.902051708485295 487.16232815241005 C154.2579545068017 342.5022041683131, 280.31246077563446 195.5564719904152, 450.1711891261583 -0.06858110035683468 M27.493643739457536 486.3012552135208 C196.67855672867012 291.8914082638533, 365.25416821843766 97.47963941044891, 450.4133078476136 0.0442222701487367 M32.89976171777185 485.3814428835925 C194.4877607352554 300.2364767354859, 354.59148090957814 116.46149790080463, 455.6878935122161 -0.6918072650258807 M33.62883894295033 485.8681794740078 C153.4988520078228 348.38851471878735, 274.6340822250664 208.23343656033677, 455.7267068700163 0.06778711061427317 M37.98737674836089 485.7859388868922 C151.26250213029624 357.4669191424593, 265.0367955613532 225.38152190350982, 460.6800096494323 -1.0944912398981899 M38.4883256118374 486.28852776173886 C174.62620544120682 328.0184319684048, 311.0613416044651 171.15958236602657, 461.08239920485676 -0.5482613461840004 M43.90235665510844 485.74027395498865 C175.31219813822665 335.21377802210384, 307.83172540207266 183.3630766680623, 466.77794877670107 0.6644755885968266 M43.91100403066228 486.35773931470624 C156.57859469113606 357.8629845740435, 268.35903003245176 229.19188074253861, 466.64895527071656 -0.38105179136299516 M48.78761267690842 486.0730567014524 C160.73285576058885 355.3886359207996, 273.8046902891637 225.84065408309095, 472.1599867198878 0.35738559336137427 M48.909194618006396 486.1549354417929 C165.76768645659178 351.0847653949746, 284.0189643682925 214.49145023502888, 471.38577882314854 0.5680020932919945 M54.78997966861691 486.6893699189629 C192.96097522569153 324.7449600553266, 330.78451981979407 166.17342553471775, 476.73408680485795 -0.49815635270234115 M54.1421101584133 486.18024288099065 C152.26244027615755 375.31823696703583, 248.19533979532054 264.43408368371973, 476.6999298677058 0.31233037599567415 M58.76174386912779 486.2584472210907 C189.65697582208682 335.60369297211855, 318.8052549545106 187.54447474755676, 482.5197227705056 -0.3251041360237594 M59.89238357046442 486.56747044118276 C210.5923512300987 310.5450169864986, 362.6769340664325 135.48285396320773, 482.1029475729698 -0.080664384368896 M64.65911513329725 485.82599640051535 C174.57815225085713 361.92347890276864, 283.1444807762674 236.57654177947134, 487.7902919716867 0.4800625360766162 M64.93954013870339 486.2214323603611 C155.37813841431765 382.3463254302007, 245.7133044762451 277.5579952009113, 487.42826347348415 0.20242580019028084 M69.44375470001907 486.90187607080713 C187.10954965785453 351.27158665708123, 306.79443618037556 215.87183378692157, 492.1746431472953 0.835014777169289 M70.13652528171153 486.0306249474086 C201.29344175467241 335.1529040401036, 332.3892720225344 184.8684798941332, 492.4077292378302 0.1336909885562079 M75.48124742414937 485.47241902464583 C211.66831064440422 332.63954370199724, 346.80659554291566 176.39654697618556, 497.85554865218734 -0.6161021200663015 M75.68317678403244 485.60454994031744 C172.19884804662945 371.77840225163396, 270.3644819814166 258.7457532593827, 497.9450889005515 -0.01877333127917495 M81.24262954458223 486.0881088756018 C240.4588286528833 300.84083895454046, 400.18786263198024 117.63426940321719, 503.4712322252568 0.5850079579404337 M80.7027525642477 486.48639114797044 C223.76275285727462 322.3092644435228, 366.9070531564803 158.11527811472112, 503.29250663022964 0.521810399567221 M85.70286091617346 486.2759034163545 C221.4066775212704 329.30657297810126, 357.17473481993386 172.15051904222517, 508.5138412213598 -0.8768846961310942 M86.11540290690066 485.6903378083597 C187.40181861715055 369.9248474139648, 289.24037637410635 253.4038129115147, 508.924038961408 -0.22177483091269323 M91.84235277781725 485.8269112604745 C212.03764028808646 347.1365184906142, 331.55377534799436 210.79291036806833, 513.6309743793903 0.3971410312897035 M91.81469823057294 486.1142612303682 C222.46622486021448 335.49398214994636, 353.44074913656954 185.12422506896226, 513.7121625626681 0.23193603616417136 M96.64543998436943 485.6087152006412 C207.6933895118128 354.26139672825184, 320.9171253693839 225.2289125249391, 520.2241540542042 0.13248043288220973 M97.14110131980792 486.07703815198784 C248.45705676426758 309.5685134880709, 400.7615074999279 133.94959725782167, 519.4012464685535 -0.03958651121030243 M102.60190877472415 485.6530488504253 C256.65754198685534 310.64058023837293, 408.9295991909564 136.0992521262215, 524.3503539846957 0.06867962221709831 M102.05849509318725 486.53122738210186 C251.54515238308073 315.0462053799414, 400.4626459833829 144.59075996176313, 524.5840798476457 -0.1501899141529407 M107.70546900373728 485.5681200025062 C252.00043773257715 319.76425642170295, 395.6132949859632 153.49555860166132, 530.7204715257204 0.37175889197375234 M107.62765483525425 486.20039315870207 C223.79090879068764 352.184668604749, 339.3397846548966 218.4512222167015, 529.9753442344881 -0.46771618467186044 M112.15528191030285 485.82628727045426 C228.9707918491411 351.7180391640499, 344.4810930435137 218.16748797060643, 535.4008554161728 0.9218893557225898 M112.38277596459052 486.3917817906714 C218.33844802619407 365.78412841953127, 323.7278989513031 244.0443483551042, 534.7881412976623 -0.20132526388414362 M117.29837332028647 487.33109302717196 C257.8310141995151 326.78461392624797, 395.3268802934613 166.2463060052533, 541.4117780109087 0.1257163061433062 M117.74888723674914 486.8883545962249 C210.02180434154988 377.05295473658373, 303.66186966505626 268.7389860596317, 541.2074650717119 0.13582833620240536 M122.8114565595535 485.7313921455614 C281.3731691892968 305.29087716762615, 439.1079908841058 124.50225845407019, 546.2289630488218 -0.5959641431936803 M123.69867365728294 486.18791664357707 C227.4490453784401 365.59859977206486, 333.1425472722566 244.41571458913725, 545.966729725218 0.3392721744707046 M128.68275536699807 486.5354807391931 C295.09781400342956 292.5992305227021, 462.5725984074736 99.11590738754566, 550.9820578847687 0.40411830039098506 M128.4092993947736 486.54224549161086 C212.35221158651922 388.8416415508336, 297.6841922686878 289.900845591557, 551.2212417927245 -0.3494607610873913 M134.15441709747603 485.47812910074657 C260.83636272631185 340.824087790168, 387.7735694393581 194.7308536255657, 555.9561612576429 -0.11261524953193885 M133.67982098376444 485.8491241283185 C240.56575976674387 360.85951400634724, 348.18376316927964 237.86960936108792, 556.1247279428128 -0.030155411588623338 M139.6240404898815 485.80825834379243 C269.5477814719581 335.8061506999932, 402.38883350452085 183.51112225495183, 561.7902955223005 -0.2582695002831542 M138.9077150928371 486.46501761258287 C298.9919370068075 303.820841678144, 457.495359270346 121.68801201179053, 562.1028072100263 -0.6065912890411937 M144.64314789907044 485.9012637610099 C308.875582393577 297.53963150648985, 474.1750805316875 109.77101079396323, 566.5789344176357 0.2692016617079276 M144.76235075653497 486.3423964323959 C241.464094124025 375.56265612597196, 336.70146359242716 265.73846622920223, 566.8295187629466 0.22613416543798623 M149.8187130639368 486.94669146596976 C246.48032795264683 377.14596971212535, 342.0389428600686 267.08706498483997, 573.4704752985043 -1.0016814708791686 M149.5615171434396 486.24241314664073 C257.4978693409319 362.3356108418613, 366.0652283031074 237.18228204655847, 572.7007941361172 -0.6810710601590586 M154.8116333393367 485.36056175135144 C263.1819475291202 359.16251266720974, 374.4733187316974 232.6231489989574, 578.1687669038004 -0.028247784474024228 M155.3448957880946 485.67222574330935 C319.7066419231749 294.64301093247366, 485.519116086728 104.62911704320592, 577.6109849981195 0.0813830930505901 M160.238257464164 486.87304573072527 C279.2675007791292 348.09816022238465, 398.3075209463511 212.2133653768679, 582.2755225593894 0.5133575938256513 M160.25058835908126 486.0976742812845 C299.30055278273346 328.64090617317964, 437.98959527564654 169.4107465156876, 582.7702763545066 0.37380169328172314 M165.66885779327484 486.140788696771 C263.76662619998575 372.59468643933417, 359.73958122039835 260.9981184228007, 588.8721430911371 -0.057697963077851 M166.18858889094324 486.0806042485586 C262.31760002178555 374.4678455103064, 360.00623696702655 262.1488440927482, 588.3615094608315 -0.0536664412508685 M171.52915806556308 485.634586763059 C258.9614189154087 382.7187569271911, 347.42706549188495 280.02680783143586, 593.3015397379369 0.287194158385887 M170.41731155226196 486.0915432040144 C263.7996613736052 378.18807411982874, 358.82961101245405 269.7820126812069, 593.1970047356755 0.6780999983357333 M177.09880563588487 486.4517102222687 C303.2409742311943 339.8079801176466, 430.1337921482801 194.0430913651569, 599.7105473546455 -0.5468832491036096 M176.41706287758097 486.0470241356438 C298.50986755333014 348.6772832458114, 418.90911661495977 210.28660873213184, 599.3359749635825 0.06922775003355355 M180.81289924313407 486.40358018797076 C325.7674713955326 319.6418301580023, 471.13615044450114 152.02469561940015, 603.7514521801564 0.5093034280241909 M181.46656953548174 486.12226210233007 C325.0206581443076 322.04534561594744, 468.7806020906667 157.1338867504289, 603.6610530631336 0.053525622725624084 M187.8604612421667 485.22809195284447 C343.3347844408737 307.8374991920141, 498.3231548044219 128.32837437771514, 609.7804640693258 -0.6985380175512432 M186.71645056050772 485.88847759206493 C336.2048920067513 313.8036814561725, 487.1670391527492 140.29177440350617, 609.5517643188725 -0.26419214559608695 M191.28596537187687 485.8772916304606 C355.7228297015522 294.30075578350943, 520.8910269962065 104.90965490767829, 615.1592442610477 0.13945102774067664 M191.96574512124053 485.92557316373166 C290.358708958187 372.13455560417884, 390.0105455332029 258.335172661531, 614.4610541493807 0.20457075395150923 M197.1878089871205 485.3296995134985 C288.08620102459815 378.8948013905872, 379.9860701214393 273.08958293163545, 618.141259552197 1.7190225170248368 M197.73538475222358 486.1594568053221 C326.05214844776947 337.70756691792707, 455.1325777906276 189.14472904186212, 618.6766422812207 1.1787352198057988 M202.61984082679157 485.4779867155286 C309.3830339328123 360.41073275889545, 417.2771791477803 237.17453295657148, 618.8293690946962 7.254788804540181 M202.44472112203843 485.8747185757192 C294.7717382075212 381.36226990944454, 387.37980603461324 274.86261469816077, 619.1536095460023 6.665613801518225 M207.98983324574613 485.5412985292306 C341.14331263578407 332.8200207987196, 475.49140905174306 178.64180510596518, 618.5667098303728 13.20957894229782 M208.4849982652285 486.05195396291515 C313.0073741352006 366.85413449174206, 416.8806434206118 248.34217427068955, 619.3802833152406 13.215266996412401 M212.56100998287818 486.5529310681748 C313.6724926949483 370.4268846544206, 413.5745639967493 254.59608608288684, 620.1579291140831 19.155663222977285 M212.9958803503754 486.18044052579285 C365.30304102901533 311.54855022244413, 518.0450370400031 136.3216918613009, 619.2744701234794 19.306727792480352 M218.85051839304364 485.37265462504075 C321.8113347118405 365.72098066838055, 426.95007669536943 245.26881187569185, 619.9631256847207 25.379462760148932 M218.73892391202247 485.7954612523441 C367.1046196665558 313.71471430089224, 517.3814702121532 141.6277270107608, 619.3523966392999 25.677711248604943 M223.33095721513658 485.5743903133991 C316.99320321114476 379.46430389483305, 411.17373081838275 271.3266602912934, 619.6402628681514 32.44858242671522 M224.07410561875133 486.0909812014522 C353.69000877827057 334.97088694403334, 484.1724504424524 185.2982852912029, 618.9461228682551 32.016647433001125 M228.17278977502252 485.81324300615194 C337.24322736725713 364.13948683175397, 444.44440443456443 239.24144973415528, 618.5269914902404 37.125939595578224 M229.17723547611502 486.6116804413319 C350.10472835741757 345.1490595765898, 471.65626388898056 204.4821412395002, 619.060365065898 37.20181016388348 M235.22616689856693 486.9396300762014 C353.0578682922117 347.2931965497011, 474.3510821974566 209.05401083230183, 618.8224727898819 44.28389288030852 M234.8967797396664 486.2920827901976 C340.8699319973908 362.0241706559958, 447.9227503869092 238.6570152521091, 618.8293186508103 43.54044575013508 M240.0027498246638 486.31341013711835 C363.4468557179264 344.4164639072799, 487.071927635134 202.21273192623488, 619.729791621932 48.87127507358558 M239.2106838279871 486.8956845569327 C378.9515506468039 328.03494486628574, 517.3369966251199 169.18477824726455, 619.3340714075354 49.46080592974789 M245.01812340816912 485.37091598158196 C371.1429747702611 341.40455960762995, 496.90958673958085 195.55970767950072, 619.3574842252845 56.401069788979996 M245.04378552562054 486.50698747952896 C384.18061943141225 325.3544409317524, 524.90898536024 164.49294730168964, 619.1791312546545 55.92482451160502 M250.49332388797697 486.1126312231629 C337.9803496732212 384.45332442465525, 427.17099521337224 281.80599465309024, 618.461951425805 61.717444399393834 M250.2443427511483 486.74417536686946 C354.18899923462106 364.5493317098055, 459.68803341559584 243.8949492298118, 619.1098394477211 62.32015031392101 M255.5533111189432 486.71551365454064 C391.64811266563714 330.07020843585354, 529.145640176099 172.36264704828085, 619.2292815493589 67.30987877772955 M256.05750578911375 486.29643745694625 C374.3967081254449 346.9841187549037, 495.0682314880709 208.7985200050158, 619.269193492288 68.29927590491084 M260.12849633996194 486.02067188928567 C388.12767624352534 338.5375329272427, 515.4736487004539 192.23514876869038, 619.2570733348402 74.4272940375575 M261.1018450580985 486.53664505864225 C365.1259112379943 363.3359062138697, 470.8903593647569 241.91963907296523, 618.8546700569365 74.01866634345735 M266.1532144058891 485.5456887200774 C364.48797632691776 374.93253889189486, 460.89112030083487 263.01701005431977, 620.0968491371052 79.44508547155722 M266.642823342646 485.8586749099494 C343.13496236420656 400.1830712140259, 419.3145428156348 312.5873551478952, 619.1356381762104 80.0307921175526 M271.4672515556188 485.9722977604865 C373.25138170252467 370.6979717188655, 476.0349725962251 252.28060121166754, 619.5555826950475 86.35279919329923 M271.36932356133775 486.0900858197509 C365.39943467980123 378.6641494498856, 458.7630009547296 270.9727006460846, 619.0298870186909 86.49680578607959 M277.414317644007 485.95870680319234 C369.52371391394826 379.98117685377514, 462.23350919057754 273.2771412500206, 618.6381123345328 93.52116507568584 M277.46712099871735 486.02944202603857 C366.96719248094104 383.14336293069954, 456.12542259296566 279.85666919248, 618.9210390899314 93.07857491725312 M282.7435739099476 486.6272744617654 C400.6836755930154 349.2068340012659, 521.1376758111494 210.45765975450604, 618.7289638814266 99.21622549161913 M282.19541107336613 486.2589898376955 C396.5784822870721 353.9172403408842, 510.76193232484343 222.20649733387674, 619.5153731454844 98.37781082928778 M288.0081052082967 485.5768335288853 C353.6511174562723 410.6538097509696, 419.2877375553695 335.21729032186477, 618.7741735746229 105.51346405466975 M287.9602815698277 485.88198099271364 C373.73010691532323 385.4693661445179, 460.1973349085904 286.0360814828304, 619.098647103932 104.97519733106675 M292.66590539336187 486.1689324508234 C408.1124682575843 353.75325010067513, 524.3645787204771 221.14774364430176, 619.0202168766633 109.85964435862012 M293.09416815308134 486.5368956680359 C391.09551552162304 372.60113406633417, 491.03238561548113 257.8615171951038, 619.7559886752364 110.52260127439183 M297.8584604009327 486.783684160558 C388.5859879852257 381.0389977900226, 478.9287893907334 276.9770489975587, 619.7578117796601 117.6178796005117 M298.7301601803512 485.92591887031296 C412.60518822303254 354.568226944225, 528.5453188879673 221.58978592604123, 618.9244925472024 116.53916803874124 M303.64015662100917 486.74292910657806 C419.55914526852223 351.66551940176555, 536.8152826684068 216.9282915938228, 618.4718704661038 123.8674376123431 M303.5436791051675 486.6752899142444 C373.71636290437135 407.5873905212378, 442.096775700239 329.10614972646084, 618.890422968839 123.60629874133744 M308.1702626436912 485.2779360548269 C411.1871305358679 368.19025696773593, 513.0158130244276 250.23499152285464, 618.6005980232441 128.64520623839067 M309.0941220571946 485.6899124769922 C393.2144309525569 390.191465381144, 476.88744273120517 294.10503504760277, 619.0965788646956 128.93402314757662 M313.6146788645992 486.28611714320385 C436.67730298965574 347.1462958388956, 556.1408671967388 208.50359856541223, 618.397869338498 134.5916015435066 M313.7136292208895 486.6079816313492 C433.9197817530756 348.23596590109025, 553.8750805503051 209.98644088066584, 619.236040226456 134.93674216365008 M320.09511215937766 485.03010424965436 C424.50463073350414 367.90460761678133, 527.0248238775671 248.2415045579126, 619.6608844293067 141.75645668258977 M319.5808858521396 486.2864979612487 C397.2503530253541 396.8615202519118, 474.20695077494946 308.54809495559476, 619.5047267922338 141.08464233188954 M324.50928436427154 486.9802043214526 C411.81991619734026 384.21471222724097, 498.01293202181824 284.39874675074066, 619.6497261237125 147.91891522986734 M324.77210439008905 486.54446095979597 C384.8098547175226 416.3391648361974, 444.4501480717953 347.1028495469886, 618.9456783584001 147.4804998287988 M330.63939268262186 484.939038269583 C422.9546091408071 379.6805335554371, 515.879833371863 272.371826518682, 618.3350757047541 154.5771839744079 M330.3168338881399 485.8970018302114 C432.0316911666155 370.42964439414504, 532.7315541623204 254.9846799327894, 619.2977389617649 153.68636314447988 M335.22115445508456 486.3182536547032 C403.6381072764566 406.44320550002686, 471.73656494994617 328.4895410829609, 619.5673198911811 159.88868170042906 M335.034399449143 486.02851385148887 C416.56989395782455 393.83566520934943, 495.35362944894376 302.21161219575606, 619.0516677588605 159.67486165587525 M339.87331449903235 485.62905551864384 C407.2715197383891 410.232713989592, 474.25899478153826 332.2150671415658, 620.0904240026695 166.8616560385967 M340.8747512219157 486.2693306208511 C432.70177387073335 378.10810915265915, 526.4403347284644 271.0430582926259, 619.489480213014 165.48007118083794 M345.0223840970969 486.5110773313345 C424.87269231758563 400.0252386356425, 500.7101687046188 312.4288909211347, 618.7584201353374 171.9778147591957 M345.61128742192835 485.9046094708322 C433.3055528692412 386.8348192384424, 519.8344149190775 287.18195646454734, 619.1590278095272 171.52105717647126 M351.26189716559935 486.2727374514993 C426.63629691748463 397.9963940939376, 501.2938294246542 311.1972263272769, 618.926333987712 177.51392742337012 M350.57717643036244 486.75710282874724 C447.1368220591027 375.28009283607344, 543.2771279713539 263.28677724868527, 619.0154978980213 177.8619763588347 M355.9765374467799 486.75834117668364 C449.34721697413266 375.8770461927517, 543.1601003149653 267.69836284195543, 619.14185157337 184.39192140632787 M356.67748766609867 486.4047539142829 C425.7395794926699 407.4758329735115, 495.1996590771699 329.3523607175654, 618.6357775669455 184.6895532951483 M361.3240363485831 485.6644325573497 C416.6024060855844 423.57889663621614, 470.99292054749054 361.55799508335406, 618.3605557630252 190.002798157889 M361.2391108489829 486.2421853548555 C449.24833301627353 388.33177585261456, 534.4742040393946 289.9943095867416, 619.6591207951333 189.62314944847597 M366.53717062443155 487.1502560972915 C446.5342503822419 393.78473258765223, 527.6662593241789 301.75956468143875, 619.8966812580636 197.2216034438703 M367.1901944056431 485.7729037602991 C448.3036171861858 390.3262955592655, 530.7202315283995 296.41126000940494, 619.3632688303353 196.15725897308886 M372.8513160172876 487.247573093153 C465.4786613926566 379.38307639053784, 558.5766964639303 273.0084199261328, 618.5037663854849 202.30623590624768 M372.14413219883954 486.9186439868125 C450.23721037830234 396.23153294442443, 527.7827767526117 306.31977683089076, 619.8594395044875 202.09879367780385 M378.0523173667408 486.4406490045601 C446.01298108670596 407.7956955594112, 513.4458419454397 331.87139305752663, 619.7661168471609 208.04991935176483 M378.32525094315656 486.0059129705776 C471.90811484698224 379.68662229737305, 564.5161232672118 272.7351731193402, 619.4351807382272 208.34583381953982 M381.8522448505215 486.4985954231436 C462.98334044801163 397.1154864095326, 541.5790231847435 306.9375325308875, 619.5679202245137 213.8987402436472 M382.52164732436944 486.44054653726243 C460.84793529886065 397.6294352559998, 538.0229966332059 306.93154440396955, 619.5660113022551 214.21290989604066 M387.7099909966569 486.9233695802277 C449.1799348363948 416.91164039611425, 509.3892521918892 346.5861207313196, 620.1184213604861 220.7677086648748 M388.8285599804458 485.9769044534681 C472.98625656041605 390.5590584438699, 555.5770103224883 295.54150189096606, 619.2527074689907 220.3824226912883 M393.63560123909696 485.85374644491264 C439.07143555593814 432.4367088767727, 487.8361231993348 375.5973991131488, 619.371792751137 225.61209786618866 M393.38132901534897 487.0385139064651 C476.5318024717766 390.66739548398914, 558.2210448979993 295.4530320939222, 619.4255719519676 226.64562756110809 M398.39973978712896 487.12892695603267 C478.99980514075975 393.1320385524298, 561.8550640293806 299.0554967788949, 619.3274023678634 231.74609116806357 M398.5090995443173 486.0998597923202 C452.348798896276 424.8341862333382, 505.09408332655005 362.3644025030335, 619.9085201259946 232.3067435201215 M402.887225755953 485.3310441014381 C480.2172173733289 401.826025430232, 554.6637168138385 316.7305812600678, 619.4688925879744 239.45328283999046 M403.7841611806892 486.93645713892903 C481.91366540747885 394.5858610272792, 560.1737019632405 304.5869331256302, 619.3185889139803 239.00959306477873 M408.7362132845741 486.6005938260898 C451.74014464816236 436.46831610781635, 491.94907979958697 390.31255671594397, 619.8763395292378 245.76635005406996 M409.89357176404656 485.8754316417748 C468.87526908937474 416.6227840413209, 529.2397990802775 348.3488013736582, 618.4506243077542 244.63702661755326 M414.24309324903896 487.66504734945835 C465.1096322819066 429.82438076089255, 513.5410795193997 370.2019601535721, 620.4477266798503 249.58283357491598 M414.7087191596966 486.6232719055041 C462.80508942964735 432.2278975647078, 509.0078462316434 379.11846928043764, 619.8066062041621 250.38700282633974 M420.8826436633893 486.1290125137729 C468.4431808811063 428.19460729717423, 518.2923242273476 371.0066288286372, 620.3063662140361 257.1303329416313 M420.024410571499 486.61257627720636 C498.6379040191221 398.1923712483663, 574.4462319858786 310.48098928427777, 618.5515799075258 256.75597298447735 M426.5573921163039 486.9780079957116 C472.27252024488183 436.0569022381596, 516.8605032323214 383.2473353994498, 620.8980635215889 262.4310453308284 M424.998971116678 486.3734494520398 C468.8137503916622 439.4810409702266, 509.4322890844184 391.22305293428013, 619.9848494633824 263.12377044007815 M432.1770132693438 484.9915060417483 C485.4617662563203 422.40430438052937, 539.0409718934224 361.1435210548051, 619.1524849737275 270.6602293982936 M431.44294583820897 485.7377441317739 C490.22747735501235 417.1334193845195, 550.0085311047123 347.9585830947019, 619.9559990262717 268.6288725600395 M434.79152156846084 485.55233035766724 C508.3479605741758 402.07581658001845, 580.6278228557446 320.6724694188594, 619.4474400674253 275.2948443739295 M435.550743415829 486.19276466575366 C501.02353844770056 412.60173602235454, 566.0398289177107 337.946622454987, 619.6149372477136 274.995710869232 M440.48275786327747 486.90176591011374 C512.5741983227372 405.83792902740566, 582.6808392831832 324.1974228951366, 617.9966132285269 281.5050402147795 M442.3084069064128 485.4521894952725 C495.35319279553016 421.70075718959026, 550.8324177930826 358.95154085918733, 619.1233376015407 280.591829163722 M445.24778158701145 485.89307111345187 C484.75876526176717 440.73807932032236, 523.7883345350111 395.98093977586313, 617.5351152726718 287.2965162215358 M446.529941115462 485.7638465525471 C484.0621114743794 442.7081087907082, 522.3517825412285 398.3973569936581, 618.8223624301687 287.90282855443706 M450.81194308103005 484.62170614396683 C507.05598164147415 424.6109243128376, 560.067332721035 362.46247237202806, 618.0030062736492 293.6676919068117 M452.0504587808468 485.5284519949969 C493.7818522205983 439.82465324378745, 535.4651345073368 392.45785242333835, 619.2099020333817 292.7021099525074 M457.906074575426 487.4137097691479 C490.7607514544853 447.6085006279621, 526.388636615583 407.1673187560656, 618.9403733439736 301.40640182442456 M457.21910103463097 486.0350372532763 C516.7364337695802 418.78575159351624, 573.8262364286853 351.727137018167, 618.8170845301578 300.4083949172985 M462.53480260445104 485.54335647362814 C512.973633844131 428.99147807938465, 563.5676369392119 368.38586154249094, 619.1538562503187 305.6354962953356 M462.63726769975676 486.95073837596493 C504.70069006768597 439.48804008199187, 546.4749092772046 392.31566647336393, 618.9108219553528 305.43868400110085 M468.62669493204424 485.8731741873531 C500.19348113330346 449.0868595264321, 535.9285331390029 411.21543502033137, 619.5121819390456 311.48838993581865 M467.57146409682207 486.0394743764862 C508.30319007637763 440.9252746341383, 548.7914158389071 394.7620086537325, 619.9441600664794 312.2119232960489 M471.0955682773611 486.91936121374954 C523.8984873350868 428.2693778657034, 574.5305075202921 368.8714427622093, 619.3186358617313 316.6092093856283 M473.10423625086 487.2519819800259 C528.2196049750219 425.867816739586, 583.1327035115047 363.01553062740135, 619.5748909504842 318.3524881810392 M479.01115033020614 486.81855935566523 C522.706699434377 436.6443715358334, 565.9602486972605 388.1376542442947, 619.0741099906026 322.6944604339406 M478.33118318802167 486.074302968222 C535.7004532954369 421.4665467864472, 590.4053768278169 357.57133626387605, 618.9997003204327 323.50030366642073 M484.4870635316097 486.1392459446516 C511.5282629994351 450.80516823419623, 541.6125365728532 415.95230968145285, 620.3357029991113 331.53966284863515 M483.6881481974024 486.6311980271975 C516.892868065055 448.84904094548756, 548.2239341575417 412.98188387226594, 619.6124425773341 329.4773632420276 M490.2659127691112 485.4593066392234 C534.0162183658581 434.69160032261857, 578.0725162034832 383.4091989982952, 617.7325855203323 335.96028060033706 M489.38245589633505 486.1126008616528 C536.7109676964506 430.71358793969824, 586.2567693707824 374.23467978395195, 618.8363481600188 335.6866609057018 M495.3372595702157 484.58009719341885 C528.181152714128 448.71316355417326, 560.7663241841401 411.7763850877441, 620.7322825157202 344.1339852680938 M493.4298265502647 486.88079113937806 C540.8377651432827 432.18928933350935, 588.3313543871045 376.3890349516437, 618.7523899768597 342.7412419357823 M498.71876009635554 487.7512509518152 C542.5530931197715 437.49266779068273, 584.2371647285187 391.0541134257298, 619.2767681078498 348.1781412458096 M499.42684487149046 485.7114314895904 C545.8714414222871 433.61917210595277, 591.3079602618973 381.40894023076373, 619.1077802506719 348.96528741363926 M503.4936820317375 486.1473482076708 C538.7005470551347 444.8331872009313, 574.1389232026597 406.3437089696665, 617.4915148468899 354.0180217558515 M505.1810827434378 486.6671026938293 C549.0062865039271 437.00158817817857, 592.7148428383446 386.2430982024176, 619.6565926058429 354.48652417492093 M512.0687479265298 487.9124121833524 C551.4574117975801 440.20935886354124, 588.9312590404695 392.966083980991, 618.4519779170469 359.71101959147757 M510.0559887904937 486.01615658774284 C548.1647009786803 442.91528434378625, 584.6012511616732 398.5892721740604, 619.0228051757977 360.11362675116663 M514.8006629649389 488.32258567211807 C538.6286211985948 460.8723471982474, 557.8900786955812 434.66614342816297, 618.6510083394987 366.2886800552773 M515.7849161460834 487.20789270287037 C546.4555713121057 452.80831399025897, 576.5113611344167 418.4849581041717, 619.3552138059331 366.9907503082472 M521.1195871971335 487.87345439633486 C546.3021347887923 460.06456158869474, 567.2877996311519 431.9726687156167, 619.9056758854236 372.14582969984076 M521.7820946845944 485.77238162486015 C558.2197878868291 444.5941747071058, 594.5942478563476 402.0775339862263, 618.4217549666461 371.7991593870338 M524.15566330732 486.44272364926064 C546.8203630541574 463.1068352219346, 569.163602691427 437.9218121531203, 617.2640919890279 379.4297050684257 M525.9566587894518 486.2956416352513 C562.1743948744769 445.26037501247185, 598.9674195449227 403.4988744578985, 619.7038286663616 379.9588566440655 M531.862488845667 485.3775416532626 C560.9002043880251 452.71226993879134, 591.9649530891111 415.13272869597375, 621.4728229504801 384.88198563339927 M532.023619585043 485.31946206969224 C559.6585384366747 454.1764632471881, 584.5344332653367 423.6965942547606, 619.0512116544671 385.2831157899908 M535.6436439963809 485.65717620159865 C572.3739481983298 448.9567757325178, 603.5208613098424 410.93881732336047, 619.6034177039867 390.0014704380194 M536.3178927047929 486.31657995972216 C557.6849394780005 461.46532836404344, 580.2443712991103 435.96459458265656, 619.4960851893877 390.95365823134875 M541.4761638096301 485.98033801663564 C568.378901466527 457.74276529866995, 592.6230143855387 427.83004172187367, 617.5198210207257 395.88611103487585 M543.105270523089 486.59050339098917 C570.6252331550681 452.4389998047465, 598.8269925369865 420.8326131938518, 619.9079482415202 397.1751860090104 M546.5370659696213 484.92785739163185 C568.6728684456513 460.99977485265595, 594.6474687093155 433.90276683643566, 619.7851964218752 401.6221402265584 M547.3964499233565 486.25068814503277 C570.136689913069 460.08521213553576, 591.8529727235177 434.2561924811494, 619.0879404062615 402.3770105388468 M554.326823026523 487.05000754895406 C576.7567957128864 455.71130844022764, 600.5133523090776 429.1877236198337, 617.5687490916416 410.673200806325 M552.2580045299828 485.112361057501 C575.1020709888826 461.07376917287684, 596.9358478475267 436.24686269425814, 619.8631648170367 410.4146813523971 M559.2958901645416 485.02918128186036 C572.5205099947453 465.762756475354, 590.0330164975975 447.4846449030524, 619.1131390801934 413.72237849654266 M557.6264124763929 485.6716966599332 C571.5013987381795 470.0345637325275, 585.8227021686009 452.8226405602803, 619.741601348233 416.22451903530964 M561.9681774338455 485.7672143127178 C576.5612595487486 472.2987314004866, 591.5432709576627 454.09699384519547, 618.361009071737 422.83487859046943 M563.6190286369742 486.0056405379777 C582.5037970984714 464.0448603093871, 599.7116370714291 442.6647569788575, 619.7261343832756 420.79879186912365 M569.5675775186414 484.54806193478424 C587.3299165699653 462.11766347719487, 608.7278774306487 442.31294348081246, 617.4223975874506 426.3000588906951 M569.3481123951519 486.74708597317357 C587.0116397980562 466.30635512586866, 603.423758083641 445.14715442377025, 618.9694660175614 428.8402487697102 M574.4853789401072 487.87983195064953 C590.263249315106 467.5446253615928, 607.6985129813174 448.2394358293941, 618.4815618985123 435.0205584498092 M573.5757408463228 486.7394068813919 C586.4662362595222 471.1328791669813, 597.0848070112446 458.1966351164454, 618.8684389714873 433.96374802794 M578.187088969421 487.88391341290344 C592.7709921022977 470.535278546024, 605.4957109104198 459.14988277748984, 619.7038009391283 440.90142631107 M578.8081317108836 486.23808655350376 C589.1659442843496 473.80628565761765, 600.5927891489557 461.7811726030772, 619.1583595034783 439.8978860503527 M583.1192565407891 484.6841053648039 C593.5408199681178 475.9194931214939, 601.4061675021665 465.2246516105358, 617.7028685094672 447.69215444684437 M583.3899662472595 486.1123463960483 C597.2820000432599 470.44605938982545, 611.1641441610707 455.2745913774785, 618.5679106129217 446.13953029759637 M591.1768854543802 485.2486497787179 C595.0695564262109 479.65626745724325, 600.4332591980753 471.82322237321665, 620.1675010437355 453.1493544003902 M590.1593024548379 485.49967886967374 C597.819253100063 478.47755967844006, 603.565275136674 469.9666126031604, 619.6331798082426 452.9289959262101 M596.3299621444007 485.55290819790355 C601.4280412006359 479.99155003583206, 608.5035891227517 468.9835479683735, 620.3288308131112 459.8787902242975 M595.2616028420439 486.7810241309195 C601.8522672197414 477.77361003063055, 609.5543160123033 469.0509046748789, 619.352572309838 458.9045787270652 M599.7469279110192 484.6666850947277 C606.3362727641 481.667325199118, 609.5958538718248 472.22338970285404, 620.8672088387724 465.7245072211558 M599.4607066582648 486.4805933904336 C607.2247119481111 478.1368333156378, 614.6456395959107 469.1524044779927, 619.2811339631047 464.3041838660324 M606.4212066884421 486.91690451244847 C606.7665269879444 484.93353031364427, 613.2045635731877 479.00596285542645, 617.8190278049256 470.1579606842232 M604.952857661926 486.2410455547555 C610.3518478570635 479.49920308699484, 615.6970420607798 474.5642284908705, 619.6248741514678 470.1669546246511 M611.8343580757485 487.3067776349888 C612.1320927722561 482.6519916838791, 614.47468433073 480.1536219033778, 619.206574347841 476.8171740630572 M610.7833074748733 485.84322278970416 C613.3731573987628 483.855211790488, 615.5059449629483 480.3742125709723, 619.760077777265 476.08121578981405 M616.1959215030797 486.074332787971 C616.1903917999342 485.4136713107953, 617.3833615073318 484.7623424466788, 619.6481829325458 482.285304636737 M615.7579181600154 486.2149597293129 C617.2869746177247 485.04821856325054, 618.2861269159273 483.84732473800307, 619.3664273692084 482.6625067792327" style="stroke: rgb(45, 49, 66); stroke-width: 0.5; fill: none;"></path><path d="M0.6672201678156853 -0.6152793690562248 C215.87625265009706 -0.8087666978389023, 429.84979166314014 -1.4017925252467394, 618.6467241331935 0.42063338309526443 M0.34739416614174845 0.26379382833838466 C215.83112171627585 1.0439456795305013, 431.55126055181034 1.801546010836959, 618.3983850575984 0.04511533007025719 M617.3509253968045 -0.09901884798452258 C617.0341740704424 165.93757664524279, 616.2970604523174 330.6216289781002, 618.4227234887187 484.8588039412506 M617.7414339498038 -0.0216170243960768 C617.1720703625843 162.3312234047652, 616.8396049141624 325.4083559832032, 617.7745022173308 485.1571087764133 M618.1497899577022 485.11104824095963 C376.306471715495 485.83300801332297, 134.51662484779953 486.9403697591573, -0.218206687271595 484.7449987128377 M618.1508335448801 485.0860449098051 C460.8348354440182 487.0368453644067, 304.20842245668166 487.30238179190457, 0.395325718075037 485.36773720011115 M0.725261209401816 484.4566710350664 C0.832058773492313 358.0446749992766, 1.636741943270183 231.96670429725756, -0.10762152247551084 -0.5808474153835476 M0.20232220819319785 485.4161596938532 C0.5316598538437566 385.33984556548563, 0.21350947582585422 286.5679089486995, 0.22355878068245946 -0.26875367699874936" style="stroke: rgb(255, 255, 255); stroke-width: 1; fill: none;"></path></g></svg>