<svg version="1.1" xmlns="http://www.w3.org/2000/svg" viewBox="0 0 638 505">
  <defs>
    <style>
      @font-face {
        font-family: "Virgil";
        src: url("https://excalidraw.com/FG_Virgil.ttf");
      }
      @font-face {
        font-family: "Cascadia";
        src: url("https://excalidraw.com/Cascadia.ttf");
      }
    </style>
  </defs>
  <g stroke-opacity="0.01" fill-opacity="0.01" transform="translate(10 10)"><path d="M0 0 C0 0, 0 0, 0 0 M0 0 C0 0, 0 0, 0 0 M-0.8829053214658393 9.457406115948736 C0.519766393150592 10.00675553089505, 5.686934164683381 6.234956546293307, 11.555584056627882 2.4966083820059657 M0.6756873049866066 12.282077601968824 C3.5343328072652263 8.389427951494811, 8.070691626482445 1.28525252229905, 10.764684323918951 0.9756107891991497 M2.9718283416888926 23.0862388514868 C9.913759582648733 12.37464120444227, 16.509157811554644 9.882879023229615, 21.241548253500724 -3.4270334714860198 M-1.1075165008940484 25.03134253033912 C5.542082142146185 16.816972979461006, 12.23678680614679 8.91790706491662, 22.80312345390942 -0.6305345432669398 M3.4326562154013196 34.068807398715364 C12.360554048007653 25.95815785163063, 21.858464146454704 8.591109846950506, 29.352472820735372 1.911362409709323 M-0.3651350011211356 34.88899464327966 C10.092705750044448 25.024263241247475, 23.68820745226336 10.846986382001905, 33.763987725085414 -1.8526897093967314 M-1.2843573335558958 52.08796427831881 C14.557019461365634 34.532275568294395, 26.843972483950903 17.109677908037142, 42.86362779568486 1.7717690941273219 M-1.7811285238713808 48.44583655954234 C14.693104816132946 32.304173877234305, 27.697390156616144 16.016883489756395, 43.818743140060235 -1.855442562294101 M1.471125150201729 62.96311633614491 C14.405868584242047 45.55842742695279, 35.6597871240838 19.553822332534963, 54.4173471627242 2.257946347392977 M0.34501128467719866 60.32071360153745 C16.219195812869746 44.25434555730857, 28.0753854654727 25.95688817733499, 54.718488331646384 -1.356688609771549 M-3.0960623489508023 73.23552333781866 C22.03426952211032 51.63097176854606, 42.03265367276982 21.358456294781952, 62.30440240622838 1.2002164351312885 M0.9831330573371062 72.07698026145248 C16.019133103942114 52.08117617059162, 33.43144432457564 36.884985005526154, 61.95260318265636 -0.5001046096415749 M1.86735165336151 87.17300754896507 C15.432354443857331 64.56317652397661, 32.58813465521374 51.67743474038641, 74.2140025105724 -3.5945358770327402 M-0.15863332307915812 86.85220978147493 C20.844415992437902 59.36775305065065, 43.60081109593107 33.95699253590354, 74.87374882590267 -0.9801485697166754 M-4.042982887476839 99.77466331543192 C21.001962422420636 71.56387935634909, 41.91837707984407 50.04619815205189, 86.98379396013127 1.9071366765258801 M0.8350642472504006 95.98790373401508 C16.48505765393127 79.67770772324343, 34.02452952253622 56.11896886361712, 84.8228676441978 -0.16705974780936117 M-0.11480142910983915 110.00201874239863 C35.50689507630197 71.9917598398859, 62.272922304854646 37.659554642435936, 98.34986073927999 0.2152438614321568 M-1.1639637908807074 109.88565370081486 C26.36123203332028 76.37136522261292, 57.88618480435794 44.026038263520235, 97.25418327035428 -1.231858651732125 M3.2944209838470044 125.55729317571303 C26.528081180649615 90.3285638440419, 54.32529161608728 61.2800241667333, 102.69672433239353 -1.4336420566889032 M-0.1388028336504874 120.41039875428459 C31.51442403444502 84.7065568291307, 64.24836763685535 49.50919611679224, 107.86020058718455 0.72865296070254 M3.131705835768699 136.11455888100005 C34.284886540546026 94.58601585315903, 67.19197622366231 59.49303099711486, 118.15128469485643 -2.071676731989534 M-0.17819799824643212 135.7465871366117 C45.360776294237596 79.07488344711601, 91.84807823418474 29.478192272154388, 118.04064669851067 1.3216016619049 M-1.2574878889697771 146.32445062388476 C46.17339156249921 97.31453413093975, 87.21290076810986 52.17311974697677, 128.95705636902466 -1.7685820592902886 M-0.0076131518560629274 147.02788583998378 C49.13710262377926 91.2939923291702, 100.2022936543434 33.83786606176085, 125.6517070451261 1.7142040336169018 M2.5910272312397944 160.58273483452615 C50.7107144879448 101.63168967862742, 94.79117790926679 50.779868943156345, 140.84989611123996 2.815161311679047 M-1.3705712113348034 158.94686531611114 C46.69917916945084 106.07152761761309, 93.05463894903023 49.77248481483355, 137.23439827032107 -0.8148616833954858 M0.41566149625013016 173.06856614230145 C43.85013320360398 118.22348294522148, 86.8492189753494 70.43139410798818, 149.41300327474957 1.1669195831968473 M0.8177113045713423 172.4424604155371 C45.756270763772406 120.9525201508655, 92.1014523976436 67.92720733399874, 146.79455387043282 1.1013094099968137 M3.1099701295527162 180.51356368461657 C42.56966178519755 134.86738354055817, 85.9757594252614 84.25077661729978, 156.3390169067468 -0.48988258281588426 M0.774762499563806 184.01414448992952 C63.06504506434487 109.98745608215707, 126.31841276787004 35.94819308980127, 158.5685605792208 1.4702402097031857 M2.5376951791455857 192.2826447751922 C53.135677311877394 130.52095896247513, 111.52116352265641 66.54066069540876, 172.26064819741705 -1.4656397398259302 M-1.3144082671533246 195.1885964804749 C44.32983755172164 141.95736582598212, 87.77430368060512 91.77236940013479, 168.9332075972952 1.0107709780039182 M1.7939595211517712 204.311093949624 C57.56852481611891 147.7556442022373, 115.56085074162979 81.08763809307311, 180.71345526507096 0.7623866805749122 M-0.6117249754384632 207.5650214424222 C44.85289918071521 157.40284259627788, 85.25574406006493 110.57614947268259, 180.24334653620397 1.2959115412417848 M-2.385980249555195 220.14826672804804 C37.75278139046947 172.14988464014687, 78.89518447663983 130.57163430074178, 193.35372017355664 -1.588232112322837 M-0.9845660271565359 218.93493533374496 C71.2870816552309 137.4186186253419, 141.57621782647183 55.61170874353288, 190.97693027281716 -0.00028590786063972806 M-1.7906268570753199 229.63960571797148 C43.771973145504056 181.8104277883842, 83.05695293295994 132.5501780120484, 201.78849636837796 -1.5243817936026403 M0.5898982388370141 231.0650801022616 C40.705165207218975 183.3819717425007, 83.06210275715962 135.21948522952727, 202.24780883869778 -1.3016405857418099 M-2.0014480313526324 243.49779277098995 C67.77985602403488 170.84586571078358, 128.62515732114267 99.80901635865524, 211.4140447082585 -1.9013189220412716 M1.0065423512707028 243.32026918202845 C77.5125333544262 155.40056912557904, 155.29004954679084 64.1521437609568, 211.8757819162041 0.7151290191605134 M0.8679015645757289 255.01970202279688 C46.62629510827204 199.8998324262485, 92.63936439435498 148.42757301404944, 220.11786743172365 2.496430761492143 M-0.16867847747756815 257.0566808680896 C69.66325329049077 171.16946227613704, 142.94292995607958 87.0935370230407, 223.09424850443276 1.3146571026715406 M-0.23338136982730184 269.7086980465856 C77.32479244226899 181.52283974505468, 160.94919623458608 87.63340279048481, 232.2962737397988 -2.0809284463715225 M0.9620443837201729 266.8024475367389 C68.80356285136921 191.1732217012355, 137.77267514070942 113.4435171336081, 233.34890082123047 0.6763593418664812 M0.18115963429272075 279.25859409929467 C57.841846618499815 212.106587139648, 118.38746873127123 142.09116836784833, 245.1115899352269 -0.1478480387209093 M-1.1292058884939964 280.7574596616727 C68.28144993980091 203.97251397943162, 134.60880170580756 126.7471869232271, 242.85831542440502 -0.74685112127813 M-1.1772337419065457 294.5707981783546 C75.80590649263307 206.2080438779051, 150.30854414581148 122.5887296217682, 252.13582841423468 0.23467424454175728 M-0.4693129530008105 292.73680584710394 C97.95326012726012 179.79489553439305, 195.6584789446504 68.25380595748963, 254.15992710251754 -1.191879654346969 M1.9504868541110127 305.5194127344166 C83.64371747251971 213.69705438632957, 165.40290383749567 120.37257523740739, 264.27665408264676 -0.6638797373810944 M1.1052220608371301 303.7062118108312 C97.98647409776629 195.34569938543015, 194.14318654421209 86.20929655155746, 264.931765662881 0.9115201494738685 M1.8358031420230736 317.2577699313965 C81.26486511685847 226.74949399350848, 165.46563174035617 132.00281666278707, 273.78826672107846 -0.07325350651103438 M-0.016668878303472995 316.6359167486306 C65.12505229297354 244.48050025249339, 125.87090631573902 173.6016213841229, 275.5106625062035 -0.6127337335705847 M1.6192649383824016 327.3002821863354 C93.19537214179203 221.6069000003714, 184.84993275039903 113.21411544534782, 284.67133290701986 -1.3263746317444332 M0.968738074816666 329.4091406047162 C110.96380728221553 203.64772291816288, 221.2784992337832 76.67545178289647, 286.3636191597555 -0.6705136287975988 M-1.3864365184829504 343.51872801403425 C82.86137199362375 249.97428918047362, 165.07672493967218 156.64291985037258, 296.3967157321913 -0.749016281141282 M-0.7044050114375919 341.50698060053054 C103.47070901508367 222.6738073153809, 207.19555096893964 103.37432405501009, 296.1823990208596 -0.01647377628316385 M0.7627431941032687 353.3566016559186 C87.81169428610383 250.179623583149, 176.5058689936286 149.81030598459688, 306.64550965499865 -0.1982279524218246 M0.023466110379598656 353.52378923063225 C121.7988417750826 212.8798492238589, 243.39108674714006 73.96969927949056, 307.83290275351663 0.5792338080402984 M1.4597116700286932 367.41830564593835 C111.00705810829797 237.40760238388853, 219.3406782471264 110.00618522298132, 316.87654925745375 1.286671456561915 M0.16284969293437082 366.4655853258997 C85.30037874763438 265.0154401211128, 172.6346474066668 165.84542367746886, 318.7579171426632 -0.5260615999412317 M-0.09593746888523358 378.8685637256374 C93.24713760393904 268.32825394329234, 187.81666844830113 158.62950025168766, 329.59535113943485 0.43188746313628035 M0.9810376964222883 378.33676828502314 C96.95152270538998 264.24540785840577, 195.303047902373 151.56622743127824, 328.901757981607 -0.0034340452117078146 M0.5724983439587163 389.91386410842995 C74.11017947590291 302.1531875945876, 148.19175406585794 218.1817836104201, 340.4317366651503 0.0962101727160189 M0.4012841076396512 389.2314627508388 C86.11657393689497 291.6643823295251, 170.3341482817369 195.37147097435778, 340.15358783372324 -0.8260316446987417 M1.1117641658980633 401.5746315177343 C105.97404744343272 278.0208505714576, 212.54567877588732 156.22226648701647, 348.92947954371124 -0.2785899349423858 M0.47275450988600487 402.33952615967013 C90.40072114950667 300.5685436567077, 179.186034086323 198.06729529085567, 349.2965342549935 1.0193783707049875 M-0.021588351336140475 414.49545069935493 C140.503140893426 249.308719499131, 280.1116161003374 87.89488305531737, 359.17950642684855 -0.7323031140345506 M0.46425641426740183 413.9081311479466 C108.17105933040051 290.3855016066284, 216.44248485647844 165.7296942318279, 360.4072172565237 -0.3028438625711374 M0.32019035701559345 427.07566013976464 C77.65825491909862 340.9586603976647, 152.1508017555245 252.2102438433981, 371.0639418793219 0.5500341219124039 M-0.6282672550816699 426.47826659276615 C114.00171220439182 297.62299540749024, 225.55248279539404 168.2687509284582, 371.3393922624486 0.8154780325707635 M1.3002838847032934 438.9505137452134 C140.05430144243897 279.9142878537459, 277.1995514247004 124.46130765644622, 381.1803444948812 1.1193006791483642 M0.19249795496381808 438.6158992910036 C83.24500311289832 345.77043741783916, 162.45057126267204 253.37158750759914, 381.19818622589304 -0.042501646994423936 M-1.7148082035135817 452.60060000217413 C142.4244932232964 291.3972063911263, 280.0282290545955 131.39107067907133, 393.28564786727634 1.5170004639234436 M-0.936880031461675 451.9713931197569 C121.08881401661748 310.90169323978967, 244.90862112216004 169.40343833286244, 391.3340385999819 0.18605889560841432 M-0.23103425590406346 464.033003656451 C156.8396841922329 283.4987637777005, 316.6784078264815 100.00794450388798, 403.7961605902574 -1.024737617512443 M-0.8663437032521814 464.2106707154553 C125.91980726361828 313.46085002979635, 255.06360161727406 165.56240561535012, 402.19270133784033 -0.006311042745807072 M-0.6631447077085512 477.00956319451694 C163.7944596071833 287.4593345606232, 327.8543689867737 97.11090202594166, 412.88756625757446 0.3168403410907331 M0.2812998637269004 475.8934709551967 C100.98665032919259 356.6643551462314, 201.96933845825407 241.11464100313844, 413.36523889259325 0.4526053348179403 M0.30166209280389467 485.81861336217645 C158.3294441405845 300.73427063886544, 319.43413266358226 116.23122423035774, 422.7949234629774 -0.3448867540170284 M1.4967331805815092 486.6950914754105 C135.73179899754516 331.9140153069186, 273.5713019078398 173.37870442820838, 423.63802821736573 -0.4352876748253437 M12.196153087269362 486.0920181030062 C127.19529906127006 349.7169460031726, 247.95874782846957 211.89051624715216, 436.1126658002163 0.8940850034143012 M11.926541548322735 486.07342161029845 C137.69289452325657 344.9652305559123, 260.49488826422726 201.45326603933555, 434.24275876528276 -0.5883982748006304 M22.254935463570767 486.07471544637497 C177.74956777958062 303.60269321685325, 332.5575778841063 125.79568768723747, 444.4946018630412 -1.3716154803653637 M22.50508801420849 485.9884872798544 C142.3675409157726 344.35719059568385, 263.32328397179197 205.16291625184053, 445.70643248946936 0.5045528317669948 M32.75681781545814 486.13633429853286 C135.7184967653731 371.59631516081504, 235.1769189674628 256.6881852537836, 455.75391524520205 0.6432657008940907 M33.84687453136381 486.6640677809533 C173.3210461877594 327.17928542440404, 309.84077636926344 168.99930269669733, 456.30136384305047 -0.6654675582473545 M43.73998373668145 486.2371285657298 C136.68663092016766 379.44717466145, 230.66904169199336 274.7894854118011, 466.5631645404488 -0.7853925465574207 M43.911715552913655 486.30362991047014 C138.48518960047772 376.3086618523753, 232.69368690499243 268.40790395753413, 466.8951797791511 0.3221948520312367 M54.501991820990696 486.0279771542157 C221.01977177031847 302.493400494677, 385.0537722626073 112.24056399525294, 476.75428334253144 0.008913683530130362 M54.454738031983034 486.64032796528 C168.5820879146468 356.2062468615692, 278.525010065048 228.39868022614203, 477.8008197508962 0.5678818594777966 M65.09977566213588 484.95038397024086 C220.13038230840078 309.55933084259465, 375.9241319747655 129.96822753600287, 487.6185802452 -0.2166867025932561 M64.67638142169695 485.68700374225784 C196.30914556718142 332.2852645489636, 326.6669127553704 181.7819690033268, 487.22653571141086 0.20162276096732512 M74.64964385386692 485.53647792005495 C221.55762955538538 320.37374773587453, 369.8690320382277 154.03267198234772, 497.0067388422045 -0.7144397986775801 M76.0723976751803 486.4861865382786 C194.7094629588476 347.1937889493365, 315.32151233268297 207.07225915036773, 497.72589211382007 -0.06686564662517752 M86.02727998993397 487.1090129099081 C198.9785255708633 364.56719901264785, 307.52344044305585 239.61347432827884, 510.42881772729504 0.15403330152715855 M86.08385124555826 486.66009315021734 C209.96491135934855 347.7502913151381, 331.56351538487996 208.25814726293916, 508.2477659112488 0.20182093357528857 M97.76774266408697 485.8813678460503 C190.41023369867258 377.7098533853879, 282.2121316648811 272.7965537545823, 520.1542504942214 -1.382263495729069 M97.74711908595577 485.56062787494903 C199.552709342147 369.97263313949327, 302.50555217319646 251.87892765354917, 518.986346556822 0.326774298443695 M108.76546547007591 484.6575466347317 C236.60505595213195 335.2092662447437, 364.4849087078478 185.84082530496838, 529.1118457367338 -1.60370128419612 M106.9438906494978 485.0193825093488 C211.7511207404518 362.04698726866224, 316.5138413974736 242.42132862535792, 529.8311360036648 -0.7432262551448162 M119.11819797266027 487.2868877624248 C282.021608445093 293.4619625898529, 450.2862716850409 101.8015782789723, 539.5897870485821 1.1999738423757778 M117.79510886031886 486.0523459305142 C213.91196894926617 376.70099758640936, 311.0395786182655 264.9675802825045, 540.4169487049022 -0.47971393031547227 M127.85124182357107 486.1452259749342 C269.61105054816187 324.36868772460315, 409.80892482879625 160.43664958935864, 551.5356330235164 0.42964079023673785 M127.73520622952496 486.5910657748748 C230.54778919956803 366.74051492700767, 337.43007181493255 245.03406253920207, 551.7739116136592 -0.02453443019315954 M140.0810965875678 485.96314975873275 C290.6846117604858 307.1216534912034, 442.7373194629823 129.74737850384318, 560.8563172552865 0.4768034656368173 M139.62575068125057 486.76090591952845 C229.6174095435611 388.8005120737174, 317.03671717917973 289.03383500689847, 561.5774641830604 -0.23984595790282126 M148.7396958584004 484.9071630200703 C293.5762232238552 322.4399626681668, 437.366843910057 155.5930476066927, 573.7181483376427 0.8235907748259592 M150.02968166862067 486.61220816135 C281.49693876205805 336.41631783897833, 413.26780377400416 184.14704928487356, 572.1983583662314 -0.9581192165695143 M161.01834822981905 485.0343946651969 C287.86720626498027 337.78095477865037, 418.5677052167833 190.1876455548689, 581.7907508353442 0.09746620427687275 M159.80525114476035 486.0250017972145 C326.4990393254945 297.76189461464287, 493.7552470765056 104.76478311566716, 582.0965995873063 0.5225721709044706 M171.0677372955736 485.9925986003626 C309.14223759605096 327.72368630224094, 447.3441816362102 167.48948037146815, 591.9713014001221 -0.44761050020586035 M170.95602356279457 487.05900362399706 C259.3804870714621 385.0397876247158, 345.12979666920114 287.9449712344382, 593.2956828573913 0.7697133409487151 M180.6979216494141 485.12015373181737 C302.61431085631637 349.5071523768779, 421.3504435687618 212.7455308457381, 604.7481745967361 1.2970741478504124 M181.88087587584832 486.7036179385725 C294.5008091850266 353.51208505535726, 411.0641363432245 219.80768182609913, 604.2962386006209 0.2946056706608715 M191.27833488509052 487.1460639658111 C308.59880162576127 347.31470927760785, 426.48143975823024 209.9179682094974, 615.125179018936 -1.0238509453041957 M192.22399753704659 485.6279365378159 C298.4538012733175 360.1205460658697, 408.0945881646538 235.2317863101141, 614.35026877012 -0.31647154308394654 M202.03778559635288 485.08995820859394 C307.57912151444447 365.3728157491141, 414.51925759626505 242.57676379901022, 622.9852031155192 4.7984160276940315 M202.9248904995144 485.7307387186023 C365.0773638845866 303.9589764132464, 525.479295535008 117.99976944483059, 621.174792674061 3.275996397702977 M214.76445737695119 485.96209036641596 C364.9462986029721 307.5395404849873, 521.6795645553138 131.62745359337438, 621.2144513062929 14.618011454431917 M213.06836921637674 486.09049127780673 C364.6815624370674 311.69919533963224, 516.2030317141695 136.9521953441889, 622.026083091626 15.295921271233464 M222.50590882063537 485.2633393455269 C332.1107454360778 364.0710511123562, 439.1733808983756 241.36954097450726, 621.8115065039023 29.649633858708807 M224.73456064075856 486.91534851230404 C349.8957499316276 341.4312865753841, 476.1131173332929 194.96478546363923, 622.3587287948354 28.616839491931863 M233.46907352115556 486.2852090521769 C382.8433924503897 313.08604730583534, 534.9093158712076 141.98590492036575, 623.0176773020978 39.30041214677476 M235.04890422578498 485.4931522189693 C388.9737906559482 307.0658811932054, 542.1708632279157 130.71525150187077, 622.3059817368145 40.243780356673234 M243.72026007226165 487.4098283926161 C347.834400040021 374.15895550093927, 446.4349759301466 258.50085898000486, 621.2336472946292 51.36810022487983 M245.8321519245809 486.54143169467767 C373.4504013668005 335.1101851482256, 502.39203895097626 187.7836481110773, 622.3464063706881 51.761460662332624 M254.6851520677037 485.4099512730943 C353.9782561298141 369.9810653137122, 451.22682917142293 258.4035717926683, 621.4634160462562 64.09578657949668 M255.65036819027137 485.3574037363039 C384.201894979524 342.95306131013035, 510.6188692213229 196.35045706108536, 622.6978206205907 64.4389942860077 M265.04880810123166 485.1489565998615 C360.8836657706469 380.1578183784937, 455.76497698790206 270.2350627991718, 622.2385352087094 76.05305595642982 M266.2649299759813 486.1679726407231 C397.4581129923773 334.3257175846793, 525.6943157128054 186.42182576651794, 622.7915319976285 76.96105386412798 M278.65566176659564 486.8808482791678 C403.5316454825588 337.44045213751303, 530.9137432299193 189.15642029786, 622.7817543467487 87.56424684215207 M277.8825267348359 485.27973020481033 C409.8377026671369 330.8824145762912, 543.2498494463781 176.4432192598398, 622.1859834259357 89.10612827379127 M286.8095216575455 486.35025521726317 C421.9386532308622 331.858777701526, 557.9224672041107 180.69153948825215, 623.9312570541239 100.98961314291337 M287.60516041995993 486.22895572544047 C411.67359750979017 346.11738386764347, 531.847820865927 207.59061396292552, 621.6409893586374 101.07768431187252 M298.5784804923813 484.4561936737273 C372.58317375706014 399.7074448795059, 449.7153087885429 311.980378681506, 622.5874711921726 111.9515982911416 M299.0976363903637 486.13609078269286 C380.73783337257436 391.2437379531583, 463.12385751945095 295.4113068220533, 622.5127347738567 113.41592896285248 M310.391338586344 484.1817334457229 C392.89628719421637 389.91055559829834, 476.2066267876655 293.1037275733158, 622.1614637770874 126.37106768701953 M309.82130152256525 486.04450298273173 C423.6801676270393 350.8529500477525, 541.8540928051013 216.34043521492382, 621.2846627516733 125.20475712168972 M319.80551220739625 484.49551335657617 C436.3769676595784 351.86323122985283, 558.4089413959431 214.25692761659542, 620.3992040068151 137.8521346632349 M318.7839715587907 485.1584165178165 C395.65270742638074 400.2065714388623, 468.76527790815464 316.28342257151604, 622.1511398773763 138.68733292293845 M331.47447750260926 486.85517588179397 C442.0172104543273 353.918943608296, 555.7843013363596 221.9850821576457, 620.817992194395 148.84974152168596 M331.0722446155285 485.25461960648545 C415.77352286814147 386.75573826411653, 502.56050567535743 287.3257450582314, 623.0485212278397 150.66541893524214 M340.478012414903 487.82478610892525 C445.8554274163539 369.73540843403913, 548.5068838149136 250.1848402344511, 622.9468539124343 161.6457515952341 M340.94752043264685 486.16529302488624 C452.6540683442311 356.35347478433874, 561.7777518454517 229.18376066314318, 623.237111640588 162.61808969959205 M352.7554528306183 487.3397891800314 C439.5005527891756 378.1695042411416, 532.9372667051634 272.5327709558743, 622.2681636764936 174.90325668946946 M349.9764179249885 486.9471555217852 C426.19951163518283 399.24731886997597, 500.702891602747 313.52296452111693, 622.9769991089347 173.22647685706744 M360.97870002717167 486.6737161055964 C428.47820355487374 412.1076537978527, 494.69586140340124 333.22186143053335, 619.9007891950811 188.1464690055396 M360.54574803163246 485.8704034325707 C440.7460668713954 390.39802784561095, 521.5745696620603 296.9548887236495, 620.9464266271711 186.27297582549315 M372.4249319857269 484.382360026261 C421.65453255417276 431.1496292931525, 474.28112185925465 370.34380254498353, 624.3746778776438 198.96319878404682 M371.6434432003514 486.48266036580145 C459.62135864316315 388.2533292187562, 542.6560583143089 293.31117657722143, 621.4768780831704 197.88147976067893 M383.09171972054264 487.2281982115344 C472.21257566916046 376.4429241392235, 564.1597233831405 271.66846223164094, 621.1537971685958 212.84432212159646 M383.6650369951737 486.45199392710384 C470.96308421356474 380.30166484605536, 562.0310546014192 274.9068530668791, 621.5594030578022 210.85013600562584 M392.21408821828857 487.0178438052154 C473.087753810126 395.75129580725303, 553.1596711428944 300.2369554445148, 619.8432858842946 220.69372020729972 M392.82158908409224 486.1496538145003 C472.6493149794096 398.1280691170819, 551.7247977151624 306.647323482617, 622.700264416716 223.4848299231999 M405.63374338438484 484.6022861323528 C457.11961262456936 428.5348340063141, 506.3346961006849 371.76970730541865, 623.4123347598473 234.735927411518 M403.91922232572546 485.14009718538824 C472.5387876974013 407.62362252071966, 543.0269818361012 326.1640275594353, 623.0935603161861 236.20920223564244 M417.2099309054337 486.4775255805017 C469.22773232067084 422.59784020656843, 525.612302690742 358.13445791361005, 622.8972452871039 248.8293147932447 M415.34512802678825 486.14874808663814 C460.9124262240398 427.0498211308456, 510.7728405894892 373.7751947487706, 621.9913946295768 248.47960129658026 M426.64794549021815 488.44182581043674 C481.4265305921321 421.50763456895356, 539.424747062738 355.07409433771807, 623.9608632744757 260.8823954022961 M426.5649372776525 485.3376370537995 C469.857009287243 441.59362976939326, 508.51755319782984 393.39247649863586, 622.802662688954 259.71649168477165 M437.5780822734219 485.75942833306584 C484.7582337086852 425.2848310076423, 541.5205184428911 366.21565048825767, 624.0925869182743 272.88302219915875 M435.43351798433656 487.6292458938034 C506.42930725625575 405.4746871625101, 579.037615365518 318.4930517246282, 623.5791501423344 272.6832444060594 M448.58308494024976 485.9967296827152 C483.49804435900006 440.10284340597946, 525.4300073362773 400.5263419471629, 623.2441079740175 282.11125697284643 M447.4644242679095 484.6669655445647 C500.28186167628934 425.7811368821267, 552.221423610861 365.26252011728434, 622.2264569631312 282.6494672835148 M455.3050351602821 485.392722159336 C499.59529487651986 437.9664999794867, 535.5067773185552 390.43150304696036, 620.0722496815979 294.40627577799773 M457.76064528225345 486.4954222361859 C504.7622511627892 432.8894203800316, 553.8344273711439 377.83889667357687, 622.35592060757 294.74932738239653 M466.5854255926154 487.19368421901237 C514.097501245249 435.2831844312341, 558.2989724044963 377.55246061796623, 620.9369309319492 306.4307816663751 M469.4470788942283 486.0267983723687 C495.7018469137613 448.73378578637477, 529.7232223681668 411.8680607774424, 623.6390673445711 307.87681934100834 M475.2420831666724 489.1962156171473 C522.948349043531 441.8941376462404, 561.3234988665066 389.340736362782, 619.4011963162746 321.9905238264236 M477.81049416734714 485.457846787209 C535.9209924814821 420.2384251320861, 592.7051949787306 352.79826281075174, 620.4523605563223 322.4802623667544 M487.36116529040885 483.05277659758497 C541.3662103299216 424.20189549784914, 589.6936526320748 370.41216966588144, 621.8214845404161 329.66648195832573 M490.6236896348888 485.23085859046324 C526.8612176492848 445.8103042407031, 564.5707953776952 398.82841361386147, 621.995169193209 333.0655665228578 M498.29471943236814 482.88435961611924 C533.4752919777983 453.50174504461825, 566.2309390013747 409.80546094076965, 618.6505538645641 341.2899136989488 M500.7994637497507 485.3973039903527 C539.857873960094 438.3910547197636, 579.0779996835959 393.7325645338647, 620.6625016416864 344.02106316751974 M510.284336626556 484.5945511516115 C542.6916030794313 446.92169046326796, 583.2306333356237 403.2647515479181, 624.3383178424624 360.3250694188843 M510.32757350432524 487.6818779501995 C541.3473799626843 452.3596818394744, 568.8180560309975 420.3461716182621, 623.6933503125397 355.0974325190852 M520.4056295409586 484.4234331778264 C547.4646849820747 453.50511495086596, 573.132679164889 426.60888711865164, 625.7905168709599 369.7846506003902 M521.0135392464484 484.83282687952874 C547.0617061179499 455.0384708220744, 574.8257249124644 420.2957160593065, 621.9194773872637 370.8377331000433 M532.8321821599511 489.4435154603889 C560.568127422394 447.34638285049016, 587.3998916734843 416.3615537043471, 620.578790492413 379.52081034864597 M529.5928346089331 486.8978802705278 C552.9645294171905 462.5183496932096, 572.9169301126929 436.9358559680719, 620.4080058066522 383.57324399213604 M538.3860159679083 485.45387026492403 C567.557520619418 452.6355526951777, 591.4921097292629 427.6463672250903, 624.7050386622057 390.6263930094994 M544.0392144745914 486.9989863653843 C570.3492592897147 451.050176848876, 599.2597187371806 417.24817914733796, 622.6211626745269 391.8485917677737 M550.2875899492055 485.2301323570569 C572.125134501179 467.68661244163786, 588.6089952626397 446.4457862941825, 622.9756578647134 408.66609584857554 M551.6897149762362 487.2073121562858 C568.4611565222156 468.5728255155646, 580.192507962563 450.72940379166016, 621.1655153737006 407.27791216914386 M559.9058005882175 488.7744990024124 C575.8958326322999 467.03386837659264, 599.4075285590097 451.39655321821914, 620.0954820843108 420.6811786314993 M563.3696534966798 484.4182433854197 C581.4760495458665 464.37663560580484, 600.5651292153449 445.03754799404123, 621.2609125369854 417.1745596884339 M571.8519228403288 484.3204395468383 C586.7035499284847 472.37782590826754, 602.6067858106053 450.1623299142319, 619.7617237763825 428.19417320411844 M572.8615696397442 484.98109412519625 C583.164486785284 472.8552559911911, 594.4902819583981 459.29639384313765, 620.2094250182035 431.1808171480541 M586.3538462478955 485.56385709551415 C601.0280204796431 467.59924738941777, 613.1762341887882 456.32765040505325, 623.0382099832848 444.44004517161255 M583.6544613462229 487.5552684573575 C595.6763597366706 472.6334620946755, 611.2593857651221 457.0807133084495, 622.1445820081487 444.1240573797465 M591.069720766302 488.44134599428764 C602.5910071783659 476.29445765711205, 608.6717682606421 464.4354916675929, 620.1690281604017 451.14445137982926 M593.1324307199379 485.51351795431367 C599.4665971007615 478.1596833922484, 607.5499718382248 472.014949361062, 622.2200168606425 454.42000070592127 M607.4621928799235 484.36135350878374 C609.6034485966142 477.13113262335463, 614.6598824452544 477.0342598883335, 620.9527622921087 467.75490159439363 M607.3239201437019 485.7981033582522 C611.185919213022 478.41472213566146, 617.6368746790431 472.48973575784066, 621.3587032084979 466.92887661876597 M614.9294207702183 485.8174568324713 C617.4141661485361 482.5477855337893, 620.9349557399669 481.53889160626886, 624.1817595599937 479.662198269509 M616.1685741088145 486.9882642108379 C618.1394937229528 483.65381213603825, 620.1148560939383 480.349698109651, 622.124490595867 479.23203090927774" style="stroke: rgb(45, 49, 66); stroke-width: 1; fill: none;"></path><path d="M1.3344403356313705 -1.2305587381124496 C216.5258289370686 -1.6175333956778046, 429.2462306000293 -2.8035850504934787, 619.293448266387 0.8412667661905289 M0.6947883322834969 0.5275876566767693 C215.82300943844024 2.0878913590610026, 431.4240531153978 3.603092021673918, 618.7967701151968 0.09023066014051438 M616.7018507936091 -0.19803769596904516 C616.0683481408848 166.72079244759453, 614.5941209046349 330.93453627041833, 618.8454469774374 484.71760788250117 M617.4828678996074 -0.0432340487921536 C616.3441407251688 162.12850145489733, 615.6792098283248 325.7488212571403, 617.5490044346617 485.3142175528266 M618.2995799154044 485.22209648191927 C376.7161110784858 486.66601602664593, 135.2395849905908 488.8807395183146, -0.43641337454319 484.48999742567537 M618.3016670897603 485.1720898196101 C460.7086766440421 489.0736907288134, 304.4948564253747 489.60476358380913, 0.790651436150074 485.7354744002223 M1.450522418803632 483.9133420701328 C1.664117546984626 357.4787210481436, 3.273483886540366 231.71215069369597, -0.21524304495102167 -1.1616948307670951 M0.4046444163863957 485.8323193877065 C1.0633197076875132 385.05164244559194, 0.42701895165170844 286.87972052664026, 0.4471175613649189 -0.5375073539974987" style="stroke: rgb(255, 255, 255); stroke-width: 2; fill: none;"></path></g></svg>